<mxfile host="Electron" agent="Mozilla/5.0 (Windows NT 10.0; Win64; x64) AppleWebKit/537.36 (KHTML, like Gecko) draw.io/26.2.15 Chrome/134.0.6998.205 Electron/35.2.1 Safari/537.36" version="26.2.15">
  <diagram name="Seite-1" id="VCEW36DjV3LUCJGuvGDw">
    <mxGraphModel dx="4433" dy="2933" grid="1" gridSize="10" guides="1" tooltips="1" connect="1" arrows="1" fold="1" page="1" pageScale="1" pageWidth="827" pageHeight="1169" math="0" shadow="0">
      <root>
        <mxCell id="0" />
        <mxCell id="1" parent="0" />
        <mxCell id="BQsE2AKRMuMNw9EZnUwW-42" style="edgeStyle=orthogonalEdgeStyle;shape=connector;rounded=0;orthogonalLoop=1;jettySize=auto;html=1;entryX=0;entryY=0.5;entryDx=0;entryDy=0;strokeColor=default;align=center;verticalAlign=middle;fontFamily=Helvetica;fontSize=11;fontColor=default;labelBackgroundColor=none;startFill=0;endArrow=none;" edge="1" parent="1" source="BQsE2AKRMuMNw9EZnUwW-2" target="BQsE2AKRMuMNw9EZnUwW-15">
          <mxGeometry relative="1" as="geometry" />
        </mxCell>
        <mxCell id="BQsE2AKRMuMNw9EZnUwW-2" value="Airline" style="whiteSpace=wrap;html=1;align=center;labelBackgroundColor=none;" vertex="1" parent="1">
          <mxGeometry x="-70" y="-120" width="100" height="40" as="geometry" />
        </mxCell>
        <mxCell id="BQsE2AKRMuMNw9EZnUwW-5" style="edgeStyle=orthogonalEdgeStyle;shape=connector;rounded=0;orthogonalLoop=1;jettySize=auto;html=1;entryX=0;entryY=0.5;entryDx=0;entryDy=0;strokeColor=default;align=center;verticalAlign=middle;fontFamily=Helvetica;fontSize=11;fontColor=default;labelBackgroundColor=none;startFill=0;endArrow=none;" edge="1" parent="1" source="BQsE2AKRMuMNw9EZnUwW-6" target="BQsE2AKRMuMNw9EZnUwW-2">
          <mxGeometry relative="1" as="geometry" />
        </mxCell>
        <mxCell id="BQsE2AKRMuMNw9EZnUwW-6" value="name" style="ellipse;whiteSpace=wrap;html=1;align=center;labelBackgroundColor=none;" vertex="1" parent="1">
          <mxGeometry x="-230" y="-157" width="100" height="40" as="geometry" />
        </mxCell>
        <mxCell id="BQsE2AKRMuMNw9EZnUwW-7" style="edgeStyle=orthogonalEdgeStyle;shape=connector;rounded=0;orthogonalLoop=1;jettySize=auto;html=1;strokeColor=default;align=center;verticalAlign=middle;fontFamily=Helvetica;fontSize=11;fontColor=default;labelBackgroundColor=none;startFill=0;endArrow=none;" edge="1" parent="1" source="BQsE2AKRMuMNw9EZnUwW-8">
          <mxGeometry relative="1" as="geometry">
            <mxPoint x="-70" y="-100" as="targetPoint" />
          </mxGeometry>
        </mxCell>
        <mxCell id="BQsE2AKRMuMNw9EZnUwW-8" value="headquarter" style="ellipse;whiteSpace=wrap;html=1;align=center;labelBackgroundColor=none;" vertex="1" parent="1">
          <mxGeometry x="-230" y="-110" width="100" height="40" as="geometry" />
        </mxCell>
        <mxCell id="BQsE2AKRMuMNw9EZnUwW-9" style="edgeStyle=orthogonalEdgeStyle;shape=connector;rounded=0;orthogonalLoop=1;jettySize=auto;html=1;entryX=0;entryY=0.5;entryDx=0;entryDy=0;strokeColor=default;align=center;verticalAlign=middle;fontFamily=Helvetica;fontSize=11;fontColor=default;labelBackgroundColor=none;startFill=0;endArrow=none;" edge="1" parent="1" source="BQsE2AKRMuMNw9EZnUwW-10" target="BQsE2AKRMuMNw9EZnUwW-2">
          <mxGeometry relative="1" as="geometry" />
        </mxCell>
        <mxCell id="BQsE2AKRMuMNw9EZnUwW-10" value="arilinCode" style="ellipse;whiteSpace=wrap;html=1;align=center;fontStyle=4;fontFamily=Helvetica;fontSize=11;fontColor=default;labelBackgroundColor=none;" vertex="1" parent="1">
          <mxGeometry x="-230" y="-62" width="100" height="40" as="geometry" />
        </mxCell>
        <mxCell id="BQsE2AKRMuMNw9EZnUwW-11" style="edgeStyle=orthogonalEdgeStyle;shape=connector;rounded=0;orthogonalLoop=1;jettySize=auto;html=1;exitX=0.5;exitY=1;exitDx=0;exitDy=0;entryX=0.5;entryY=0;entryDx=0;entryDy=0;align=center;verticalAlign=middle;fontFamily=Helvetica;fontSize=11;fontColor=default;labelBackgroundColor=none;startFill=0;endArrow=none;" edge="1" parent="1" source="BQsE2AKRMuMNw9EZnUwW-12" target="BQsE2AKRMuMNw9EZnUwW-17">
          <mxGeometry relative="1" as="geometry" />
        </mxCell>
        <mxCell id="BQsE2AKRMuMNw9EZnUwW-86" style="edgeStyle=orthogonalEdgeStyle;shape=connector;rounded=0;orthogonalLoop=1;jettySize=auto;html=1;strokeColor=default;align=center;verticalAlign=middle;fontFamily=Helvetica;fontSize=11;fontColor=default;labelBackgroundColor=none;startFill=0;endArrow=none;" edge="1" parent="1" source="BQsE2AKRMuMNw9EZnUwW-88" target="BQsE2AKRMuMNw9EZnUwW-85">
          <mxGeometry relative="1" as="geometry" />
        </mxCell>
        <mxCell id="BQsE2AKRMuMNw9EZnUwW-12" value="Aircraft" style="whiteSpace=wrap;html=1;align=center;labelBackgroundColor=none;" vertex="1" parent="1">
          <mxGeometry x="340" y="-120" width="100" height="40" as="geometry" />
        </mxCell>
        <mxCell id="BQsE2AKRMuMNw9EZnUwW-13" value="Aircrafttype" style="whiteSpace=wrap;html=1;align=center;labelBackgroundColor=none;" vertex="1" parent="1">
          <mxGeometry x="340" y="250" width="100" height="40" as="geometry" />
        </mxCell>
        <mxCell id="BQsE2AKRMuMNw9EZnUwW-14" style="edgeStyle=orthogonalEdgeStyle;shape=connector;rounded=0;orthogonalLoop=1;jettySize=auto;html=1;entryX=0;entryY=0.5;entryDx=0;entryDy=0;align=center;verticalAlign=middle;fontFamily=Helvetica;fontSize=11;fontColor=default;labelBackgroundColor=none;startFill=0;endArrow=none;" edge="1" parent="1" source="BQsE2AKRMuMNw9EZnUwW-15" target="BQsE2AKRMuMNw9EZnUwW-12">
          <mxGeometry relative="1" as="geometry" />
        </mxCell>
        <mxCell id="BQsE2AKRMuMNw9EZnUwW-15" value="owns" style="shape=rhombus;perimeter=rhombusPerimeter;whiteSpace=wrap;html=1;align=center;labelBackgroundColor=none;" vertex="1" parent="1">
          <mxGeometry x="120" y="-130" width="120" height="60" as="geometry" />
        </mxCell>
        <mxCell id="BQsE2AKRMuMNw9EZnUwW-16" style="edgeStyle=orthogonalEdgeStyle;shape=connector;rounded=0;orthogonalLoop=1;jettySize=auto;html=1;entryX=0.5;entryY=0;entryDx=0;entryDy=0;align=center;verticalAlign=middle;fontFamily=Helvetica;fontSize=11;fontColor=default;labelBackgroundColor=none;startFill=0;endArrow=none;" edge="1" parent="1" source="BQsE2AKRMuMNw9EZnUwW-17" target="BQsE2AKRMuMNw9EZnUwW-13">
          <mxGeometry relative="1" as="geometry" />
        </mxCell>
        <mxCell id="BQsE2AKRMuMNw9EZnUwW-17" value="belongTo" style="shape=rhombus;perimeter=rhombusPerimeter;whiteSpace=wrap;html=1;align=center;labelBackgroundColor=none;" vertex="1" parent="1">
          <mxGeometry x="330" y="40" width="120" height="60" as="geometry" />
        </mxCell>
        <mxCell id="BQsE2AKRMuMNw9EZnUwW-27" style="edgeStyle=orthogonalEdgeStyle;shape=connector;rounded=0;orthogonalLoop=1;jettySize=auto;html=1;entryX=0.5;entryY=0;entryDx=0;entryDy=0;strokeColor=default;align=center;verticalAlign=middle;fontFamily=Helvetica;fontSize=11;fontColor=default;labelBackgroundColor=none;startFill=0;endArrow=none;exitX=0.5;exitY=1;exitDx=0;exitDy=0;" edge="1" parent="1" source="BQsE2AKRMuMNw9EZnUwW-30" target="BQsE2AKRMuMNw9EZnUwW-12">
          <mxGeometry relative="1" as="geometry">
            <Array as="points">
              <mxPoint x="275" y="-150" />
              <mxPoint x="390" y="-150" />
            </Array>
          </mxGeometry>
        </mxCell>
        <mxCell id="BQsE2AKRMuMNw9EZnUwW-28" style="edgeStyle=orthogonalEdgeStyle;shape=connector;rounded=0;orthogonalLoop=1;jettySize=auto;html=1;entryX=0.5;entryY=0;entryDx=0;entryDy=0;strokeColor=default;align=center;verticalAlign=middle;fontFamily=Helvetica;fontSize=11;fontColor=default;labelBackgroundColor=none;startFill=0;endArrow=none;exitX=0.5;exitY=1;exitDx=0;exitDy=0;" edge="1" parent="1" source="BQsE2AKRMuMNw9EZnUwW-29" target="BQsE2AKRMuMNw9EZnUwW-12">
          <mxGeometry relative="1" as="geometry" />
        </mxCell>
        <mxCell id="BQsE2AKRMuMNw9EZnUwW-29" value="intNr" style="ellipse;whiteSpace=wrap;html=1;align=center;fontStyle=4;fontFamily=Helvetica;fontSize=11;fontColor=default;labelBackgroundColor=none;" vertex="1" parent="1">
          <mxGeometry x="120" y="-220" width="100" height="40" as="geometry" />
        </mxCell>
        <mxCell id="BQsE2AKRMuMNw9EZnUwW-30" value="aircraftNr" style="ellipse;whiteSpace=wrap;html=1;align=center;labelBackgroundColor=none;" vertex="1" parent="1">
          <mxGeometry x="225" y="-220" width="100" height="40" as="geometry" />
        </mxCell>
        <mxCell id="BQsE2AKRMuMNw9EZnUwW-31" style="edgeStyle=orthogonalEdgeStyle;shape=connector;rounded=0;orthogonalLoop=1;jettySize=auto;html=1;entryX=0.5;entryY=0;entryDx=0;entryDy=0;strokeColor=default;align=center;verticalAlign=middle;fontFamily=Helvetica;fontSize=11;fontColor=default;labelBackgroundColor=none;startFill=0;endArrow=none;" edge="1" parent="1" source="BQsE2AKRMuMNw9EZnUwW-32" target="BQsE2AKRMuMNw9EZnUwW-12">
          <mxGeometry relative="1" as="geometry" />
        </mxCell>
        <mxCell id="BQsE2AKRMuMNw9EZnUwW-32" value="name" style="ellipse;whiteSpace=wrap;html=1;align=center;labelBackgroundColor=none;" vertex="1" parent="1">
          <mxGeometry x="325" y="-220" width="100" height="40" as="geometry" />
        </mxCell>
        <mxCell id="BQsE2AKRMuMNw9EZnUwW-33" style="edgeStyle=orthogonalEdgeStyle;shape=connector;rounded=0;orthogonalLoop=1;jettySize=auto;html=1;entryX=0.5;entryY=1;entryDx=0;entryDy=0;strokeColor=default;align=center;verticalAlign=middle;fontFamily=Helvetica;fontSize=11;fontColor=default;labelBackgroundColor=none;startFill=0;endArrow=none;exitX=0.5;exitY=0;exitDx=0;exitDy=0;" edge="1" parent="1" source="BQsE2AKRMuMNw9EZnUwW-34" target="BQsE2AKRMuMNw9EZnUwW-13">
          <mxGeometry relative="1" as="geometry" />
        </mxCell>
        <mxCell id="BQsE2AKRMuMNw9EZnUwW-34" value="typeidentifacation" style="ellipse;whiteSpace=wrap;html=1;align=center;fontStyle=4;fontFamily=Helvetica;fontSize=11;fontColor=default;labelBackgroundColor=none;" vertex="1" parent="1">
          <mxGeometry x="-80" y="340" width="100" height="40" as="geometry" />
        </mxCell>
        <mxCell id="BQsE2AKRMuMNw9EZnUwW-35" style="edgeStyle=orthogonalEdgeStyle;shape=connector;rounded=0;orthogonalLoop=1;jettySize=auto;html=1;entryX=0.5;entryY=1;entryDx=0;entryDy=0;strokeColor=default;align=center;verticalAlign=middle;fontFamily=Helvetica;fontSize=11;fontColor=default;labelBackgroundColor=none;startFill=0;endArrow=none;exitX=0.5;exitY=0;exitDx=0;exitDy=0;" edge="1" parent="1" source="BQsE2AKRMuMNw9EZnUwW-36" target="BQsE2AKRMuMNw9EZnUwW-13">
          <mxGeometry relative="1" as="geometry" />
        </mxCell>
        <mxCell id="BQsE2AKRMuMNw9EZnUwW-36" value="manufacturer" style="ellipse;whiteSpace=wrap;html=1;align=center;labelBackgroundColor=none;" vertex="1" parent="1">
          <mxGeometry x="20" y="340" width="100" height="40" as="geometry" />
        </mxCell>
        <mxCell id="BQsE2AKRMuMNw9EZnUwW-37" style="edgeStyle=orthogonalEdgeStyle;shape=connector;rounded=0;orthogonalLoop=1;jettySize=auto;html=1;entryX=0.5;entryY=1;entryDx=0;entryDy=0;strokeColor=default;align=center;verticalAlign=middle;fontFamily=Helvetica;fontSize=11;fontColor=default;labelBackgroundColor=none;startFill=0;endArrow=none;exitX=0.5;exitY=0;exitDx=0;exitDy=0;" edge="1" parent="1" source="BQsE2AKRMuMNw9EZnUwW-38" target="BQsE2AKRMuMNw9EZnUwW-13">
          <mxGeometry relative="1" as="geometry" />
        </mxCell>
        <mxCell id="BQsE2AKRMuMNw9EZnUwW-38" value="range" style="ellipse;whiteSpace=wrap;html=1;align=center;labelBackgroundColor=none;" vertex="1" parent="1">
          <mxGeometry x="124" y="340" width="100" height="40" as="geometry" />
        </mxCell>
        <mxCell id="BQsE2AKRMuMNw9EZnUwW-39" style="edgeStyle=orthogonalEdgeStyle;shape=connector;rounded=0;orthogonalLoop=1;jettySize=auto;html=1;entryX=0.5;entryY=1;entryDx=0;entryDy=0;strokeColor=default;align=center;verticalAlign=middle;fontFamily=Helvetica;fontSize=11;fontColor=default;labelBackgroundColor=none;startFill=0;endArrow=none;exitX=0.5;exitY=0;exitDx=0;exitDy=0;" edge="1" parent="1" source="BQsE2AKRMuMNw9EZnUwW-40" target="BQsE2AKRMuMNw9EZnUwW-13">
          <mxGeometry relative="1" as="geometry" />
        </mxCell>
        <mxCell id="BQsE2AKRMuMNw9EZnUwW-40" value="seats" style="ellipse;whiteSpace=wrap;html=1;align=center;labelBackgroundColor=none;" vertex="1" parent="1">
          <mxGeometry x="230" y="340" width="100" height="40" as="geometry" />
        </mxCell>
        <mxCell id="BQsE2AKRMuMNw9EZnUwW-87" style="edgeStyle=orthogonalEdgeStyle;shape=connector;rounded=0;orthogonalLoop=1;jettySize=auto;html=1;entryX=0.5;entryY=1;entryDx=0;entryDy=0;strokeColor=default;align=center;verticalAlign=middle;fontFamily=Helvetica;fontSize=11;fontColor=default;labelBackgroundColor=none;startFill=0;endArrow=none;" edge="1" parent="1" source="BQsE2AKRMuMNw9EZnUwW-90" target="BQsE2AKRMuMNw9EZnUwW-85">
          <mxGeometry relative="1" as="geometry" />
        </mxCell>
        <mxCell id="BQsE2AKRMuMNw9EZnUwW-152" style="edgeStyle=orthogonalEdgeStyle;shape=connector;rounded=0;orthogonalLoop=1;jettySize=auto;html=1;exitX=1;exitY=0.5;exitDx=0;exitDy=0;entryX=0;entryY=0.5;entryDx=0;entryDy=0;strokeColor=default;align=center;verticalAlign=middle;fontFamily=Helvetica;fontSize=11;fontColor=default;labelBackgroundColor=none;startFill=0;endArrow=none;" edge="1" parent="1" source="BQsE2AKRMuMNw9EZnUwW-153" target="BQsE2AKRMuMNw9EZnUwW-148">
          <mxGeometry relative="1" as="geometry" />
        </mxCell>
        <mxCell id="BQsE2AKRMuMNw9EZnUwW-43" value="Flight" style="whiteSpace=wrap;html=1;align=center;labelBackgroundColor=none;" vertex="1" parent="1">
          <mxGeometry x="785" y="250" width="100" height="40" as="geometry" />
        </mxCell>
        <mxCell id="BQsE2AKRMuMNw9EZnUwW-44" style="edgeStyle=orthogonalEdgeStyle;shape=connector;rounded=0;orthogonalLoop=1;jettySize=auto;html=1;exitX=0;exitY=0;exitDx=0;exitDy=0;entryX=0.5;entryY=1;entryDx=0;entryDy=0;align=center;verticalAlign=middle;fontFamily=Helvetica;fontSize=11;fontColor=default;labelBackgroundColor=none;startFill=0;endArrow=none;" edge="1" parent="1" source="BQsE2AKRMuMNw9EZnUwW-46" target="BQsE2AKRMuMNw9EZnUwW-56">
          <mxGeometry relative="1" as="geometry" />
        </mxCell>
        <mxCell id="BQsE2AKRMuMNw9EZnUwW-45" style="edgeStyle=orthogonalEdgeStyle;shape=connector;rounded=0;orthogonalLoop=1;jettySize=auto;html=1;exitX=1;exitY=0;exitDx=0;exitDy=0;entryX=0.5;entryY=1;entryDx=0;entryDy=0;align=center;verticalAlign=middle;fontFamily=Helvetica;fontSize=11;fontColor=default;labelBackgroundColor=none;startFill=0;endArrow=none;" edge="1" parent="1" source="BQsE2AKRMuMNw9EZnUwW-46" target="BQsE2AKRMuMNw9EZnUwW-78">
          <mxGeometry relative="1" as="geometry">
            <mxPoint x="930" y="643" as="targetPoint" />
          </mxGeometry>
        </mxCell>
        <mxCell id="BQsE2AKRMuMNw9EZnUwW-46" value="Airport" style="whiteSpace=wrap;html=1;align=center;labelBackgroundColor=none;" vertex="1" parent="1">
          <mxGeometry x="790" y="728" width="100" height="40" as="geometry" />
        </mxCell>
        <mxCell id="BQsE2AKRMuMNw9EZnUwW-52" style="edgeStyle=orthogonalEdgeStyle;shape=connector;rounded=0;orthogonalLoop=1;jettySize=auto;html=1;entryX=1;entryY=1;entryDx=0;entryDy=0;align=center;verticalAlign=middle;fontFamily=Helvetica;fontSize=11;fontColor=default;labelBackgroundColor=none;startFill=0;endArrow=none;exitX=0.5;exitY=0;exitDx=0;exitDy=0;" edge="1" parent="1" source="BQsE2AKRMuMNw9EZnUwW-214" target="BQsE2AKRMuMNw9EZnUwW-46">
          <mxGeometry relative="1" as="geometry">
            <mxPoint x="910" y="858" as="sourcePoint" />
          </mxGeometry>
        </mxCell>
        <mxCell id="BQsE2AKRMuMNw9EZnUwW-54" style="edgeStyle=orthogonalEdgeStyle;shape=connector;rounded=0;orthogonalLoop=1;jettySize=auto;html=1;exitX=0.5;exitY=1;exitDx=0;exitDy=0;entryX=0;entryY=0.5;entryDx=0;entryDy=0;align=center;verticalAlign=middle;fontFamily=Helvetica;fontSize=11;fontColor=default;labelBackgroundColor=none;startFill=0;endArrow=none;" edge="1" parent="1" source="BQsE2AKRMuMNw9EZnUwW-212" target="BQsE2AKRMuMNw9EZnUwW-195">
          <mxGeometry relative="1" as="geometry">
            <mxPoint x="770" y="858" as="targetPoint" />
          </mxGeometry>
        </mxCell>
        <mxCell id="BQsE2AKRMuMNw9EZnUwW-79" style="edgeStyle=orthogonalEdgeStyle;shape=connector;rounded=0;orthogonalLoop=1;jettySize=auto;html=1;entryX=0;entryY=1;entryDx=0;entryDy=0;strokeColor=default;align=center;verticalAlign=middle;fontFamily=Helvetica;fontSize=11;fontColor=default;labelBackgroundColor=none;startFill=0;endArrow=none;" edge="1" parent="1" source="BQsE2AKRMuMNw9EZnUwW-56" target="BQsE2AKRMuMNw9EZnUwW-43">
          <mxGeometry relative="1" as="geometry">
            <mxPoint x="795" y="548" as="targetPoint" />
          </mxGeometry>
        </mxCell>
        <mxCell id="BQsE2AKRMuMNw9EZnUwW-56" value="departes" style="shape=rhombus;perimeter=rhombusPerimeter;whiteSpace=wrap;html=1;align=center;labelBackgroundColor=none;" vertex="1" parent="1">
          <mxGeometry x="700" y="450" width="120" height="60" as="geometry" />
        </mxCell>
        <mxCell id="BQsE2AKRMuMNw9EZnUwW-57" style="edgeStyle=orthogonalEdgeStyle;shape=connector;rounded=0;orthogonalLoop=1;jettySize=auto;html=1;exitX=0.5;exitY=0;exitDx=0;exitDy=0;entryX=1;entryY=1;entryDx=0;entryDy=0;align=center;verticalAlign=middle;fontFamily=Helvetica;fontSize=11;fontColor=default;labelBackgroundColor=none;startFill=0;endArrow=none;" edge="1" parent="1" target="BQsE2AKRMuMNw9EZnUwW-43" source="BQsE2AKRMuMNw9EZnUwW-78">
          <mxGeometry relative="1" as="geometry">
            <mxPoint x="930" y="613" as="sourcePoint" />
            <mxPoint x="895" y="548" as="targetPoint" />
          </mxGeometry>
        </mxCell>
        <mxCell id="BQsE2AKRMuMNw9EZnUwW-59" value="1" style="text;html=1;align=center;verticalAlign=middle;resizable=0;points=[];autosize=1;strokeColor=none;fillColor=none;fontFamily=Helvetica;fontSize=11;labelBackgroundColor=none;" vertex="1" parent="1">
          <mxGeometry x="860" y="698" width="30" height="30" as="geometry" />
        </mxCell>
        <mxCell id="BQsE2AKRMuMNw9EZnUwW-61" value="1" style="text;html=1;align=center;verticalAlign=middle;resizable=0;points=[];autosize=1;strokeColor=none;fillColor=none;fontFamily=Helvetica;fontSize=11;labelBackgroundColor=none;" vertex="1" parent="1">
          <mxGeometry x="755" y="698" width="30" height="30" as="geometry" />
        </mxCell>
        <mxCell id="BQsE2AKRMuMNw9EZnUwW-70" value="(0,*)" style="text;html=1;align=center;verticalAlign=middle;resizable=0;points=[];autosize=1;strokeColor=none;fillColor=none;labelBackgroundColor=none;" vertex="1" parent="1">
          <mxGeometry x="785" y="696" width="50" height="30" as="geometry" />
        </mxCell>
        <mxCell id="BQsE2AKRMuMNw9EZnUwW-72" value="(0,*)" style="text;html=1;align=center;verticalAlign=middle;resizable=0;points=[];autosize=1;strokeColor=none;fillColor=none;labelBackgroundColor=none;" vertex="1" parent="1">
          <mxGeometry x="880" y="696" width="50" height="30" as="geometry" />
        </mxCell>
        <mxCell id="BQsE2AKRMuMNw9EZnUwW-78" value="arrives" style="shape=rhombus;perimeter=rhombusPerimeter;whiteSpace=wrap;html=1;align=center;labelBackgroundColor=none;" vertex="1" parent="1">
          <mxGeometry x="850" y="450" width="120" height="60" as="geometry" />
        </mxCell>
        <mxCell id="BQsE2AKRMuMNw9EZnUwW-83" style="edgeStyle=orthogonalEdgeStyle;shape=connector;rounded=0;orthogonalLoop=1;jettySize=auto;html=1;entryX=1;entryY=0.5;entryDx=0;entryDy=0;strokeColor=default;align=center;verticalAlign=middle;fontFamily=Helvetica;fontSize=11;fontColor=default;labelBackgroundColor=none;startFill=0;endArrow=none;" edge="1" parent="1" source="BQsE2AKRMuMNw9EZnUwW-82" target="BQsE2AKRMuMNw9EZnUwW-13">
          <mxGeometry relative="1" as="geometry" />
        </mxCell>
        <mxCell id="BQsE2AKRMuMNw9EZnUwW-84" style="edgeStyle=orthogonalEdgeStyle;shape=connector;rounded=0;orthogonalLoop=1;jettySize=auto;html=1;entryX=0;entryY=0.5;entryDx=0;entryDy=0;strokeColor=default;align=center;verticalAlign=middle;fontFamily=Helvetica;fontSize=11;fontColor=default;labelBackgroundColor=none;startFill=0;endArrow=none;exitX=1;exitY=0.5;exitDx=0;exitDy=0;" edge="1" parent="1" source="BQsE2AKRMuMNw9EZnUwW-82" target="BQsE2AKRMuMNw9EZnUwW-43">
          <mxGeometry relative="1" as="geometry">
            <mxPoint x="705" y="278" as="sourcePoint" />
          </mxGeometry>
        </mxCell>
        <mxCell id="BQsE2AKRMuMNw9EZnUwW-82" value="dessignatedTo" style="shape=rhombus;perimeter=rhombusPerimeter;whiteSpace=wrap;html=1;align=center;labelBackgroundColor=none;" vertex="1" parent="1">
          <mxGeometry x="550" y="240" width="120" height="60" as="geometry" />
        </mxCell>
        <mxCell id="BQsE2AKRMuMNw9EZnUwW-134" style="edgeStyle=orthogonalEdgeStyle;shape=connector;rounded=0;orthogonalLoop=1;jettySize=auto;html=1;entryX=0;entryY=0.5;entryDx=0;entryDy=0;strokeColor=default;align=center;verticalAlign=middle;fontFamily=Helvetica;fontSize=11;fontColor=default;labelBackgroundColor=none;startFill=0;endArrow=none;" edge="1" parent="1" source="BQsE2AKRMuMNw9EZnUwW-135" target="BQsE2AKRMuMNw9EZnUwW-122">
          <mxGeometry relative="1" as="geometry" />
        </mxCell>
        <mxCell id="BQsE2AKRMuMNw9EZnUwW-85" value="Flightmission" style="whiteSpace=wrap;html=1;align=center;labelBackgroundColor=none;" vertex="1" parent="1">
          <mxGeometry x="785" y="-120" width="100" height="40" as="geometry" />
        </mxCell>
        <mxCell id="BQsE2AKRMuMNw9EZnUwW-89" value="" style="edgeStyle=orthogonalEdgeStyle;shape=connector;rounded=0;orthogonalLoop=1;jettySize=auto;html=1;strokeColor=default;align=center;verticalAlign=middle;fontFamily=Helvetica;fontSize=11;fontColor=default;labelBackgroundColor=none;startFill=0;endArrow=none;" edge="1" parent="1" source="BQsE2AKRMuMNw9EZnUwW-12" target="BQsE2AKRMuMNw9EZnUwW-88">
          <mxGeometry relative="1" as="geometry">
            <mxPoint x="440" y="-100" as="sourcePoint" />
            <mxPoint x="785" y="-100" as="targetPoint" />
          </mxGeometry>
        </mxCell>
        <mxCell id="BQsE2AKRMuMNw9EZnUwW-88" value="flies" style="shape=rhombus;perimeter=rhombusPerimeter;whiteSpace=wrap;html=1;align=center;labelBackgroundColor=none;" vertex="1" parent="1">
          <mxGeometry x="560" y="-130" width="120" height="60" as="geometry" />
        </mxCell>
        <mxCell id="BQsE2AKRMuMNw9EZnUwW-91" value="" style="edgeStyle=orthogonalEdgeStyle;shape=connector;rounded=0;orthogonalLoop=1;jettySize=auto;html=1;entryX=0.5;entryY=1;entryDx=0;entryDy=0;strokeColor=default;align=center;verticalAlign=middle;fontFamily=Helvetica;fontSize=11;fontColor=default;labelBackgroundColor=none;startFill=0;endArrow=none;" edge="1" parent="1" source="BQsE2AKRMuMNw9EZnUwW-43" target="BQsE2AKRMuMNw9EZnUwW-90">
          <mxGeometry relative="1" as="geometry">
            <mxPoint x="835" y="250" as="sourcePoint" />
            <mxPoint x="835" y="100" as="targetPoint" />
          </mxGeometry>
        </mxCell>
        <mxCell id="BQsE2AKRMuMNw9EZnUwW-90" value="carriedOut" style="shape=rhombus;perimeter=rhombusPerimeter;whiteSpace=wrap;html=1;align=center;labelBackgroundColor=none;" vertex="1" parent="1">
          <mxGeometry x="775" width="120" height="60" as="geometry" />
        </mxCell>
        <mxCell id="BQsE2AKRMuMNw9EZnUwW-92" value="books" style="shape=rhombus;perimeter=rhombusPerimeter;whiteSpace=wrap;html=1;align=center;labelBackgroundColor=none;" vertex="1" parent="1">
          <mxGeometry x="1630" y="340" width="120" height="60" as="geometry" />
        </mxCell>
        <mxCell id="BQsE2AKRMuMNw9EZnUwW-93" value="" style="edgeStyle=orthogonalEdgeStyle;shape=connector;rounded=0;orthogonalLoop=1;jettySize=auto;html=1;entryX=0.5;entryY=1;entryDx=0;entryDy=0;align=center;verticalAlign=middle;fontFamily=Helvetica;fontSize=11;fontColor=default;labelBackgroundColor=none;startFill=0;endArrow=none;" edge="1" parent="1" source="BQsE2AKRMuMNw9EZnUwW-92" target="BQsE2AKRMuMNw9EZnUwW-94">
          <mxGeometry relative="1" as="geometry">
            <mxPoint x="1690" y="295" as="sourcePoint" />
            <mxPoint x="1690" y="425" as="targetPoint" />
          </mxGeometry>
        </mxCell>
        <mxCell id="BQsE2AKRMuMNw9EZnUwW-131" style="edgeStyle=orthogonalEdgeStyle;shape=connector;rounded=0;orthogonalLoop=1;jettySize=auto;html=1;entryX=0.5;entryY=1;entryDx=0;entryDy=0;strokeColor=default;align=center;verticalAlign=middle;fontFamily=Helvetica;fontSize=11;fontColor=default;labelBackgroundColor=none;startFill=0;endArrow=none;" edge="1" parent="1" source="BQsE2AKRMuMNw9EZnUwW-132" target="BQsE2AKRMuMNw9EZnUwW-122">
          <mxGeometry relative="1" as="geometry" />
        </mxCell>
        <mxCell id="BQsE2AKRMuMNw9EZnUwW-94" value="Ticket" style="whiteSpace=wrap;html=1;align=center;labelBackgroundColor=none;" vertex="1" parent="1">
          <mxGeometry x="1640" y="245" width="100" height="40" as="geometry" />
        </mxCell>
        <mxCell id="BQsE2AKRMuMNw9EZnUwW-109" style="edgeStyle=orthogonalEdgeStyle;shape=connector;rounded=0;orthogonalLoop=1;jettySize=auto;html=1;entryX=1;entryY=0.5;entryDx=0;entryDy=0;strokeColor=default;align=center;verticalAlign=middle;fontFamily=Helvetica;fontSize=11;fontColor=default;labelBackgroundColor=none;startFill=0;endArrow=none;" edge="1" parent="1" source="BQsE2AKRMuMNw9EZnUwW-96" target="BQsE2AKRMuMNw9EZnUwW-43">
          <mxGeometry relative="1" as="geometry" />
        </mxCell>
        <mxCell id="BQsE2AKRMuMNw9EZnUwW-110" style="edgeStyle=orthogonalEdgeStyle;shape=connector;rounded=0;orthogonalLoop=1;jettySize=auto;html=1;exitX=1;exitY=0.5;exitDx=0;exitDy=0;entryX=0;entryY=0.5;entryDx=0;entryDy=0;strokeColor=default;align=center;verticalAlign=middle;fontFamily=Helvetica;fontSize=11;fontColor=default;labelBackgroundColor=none;startFill=0;endArrow=none;" edge="1" parent="1" source="BQsE2AKRMuMNw9EZnUwW-96" target="BQsE2AKRMuMNw9EZnUwW-94">
          <mxGeometry relative="1" as="geometry" />
        </mxCell>
        <mxCell id="BQsE2AKRMuMNw9EZnUwW-96" value="corresponds" style="shape=rhombus;perimeter=rhombusPerimeter;whiteSpace=wrap;html=1;align=center;labelBackgroundColor=none;" vertex="1" parent="1">
          <mxGeometry x="1310" y="240" width="120" height="60" as="geometry" />
        </mxCell>
        <mxCell id="BQsE2AKRMuMNw9EZnUwW-99" style="edgeStyle=orthogonalEdgeStyle;shape=connector;rounded=0;orthogonalLoop=1;jettySize=auto;html=1;entryX=1;entryY=0.5;entryDx=0;entryDy=0;align=center;verticalAlign=middle;fontFamily=Helvetica;fontSize=11;fontColor=default;labelBackgroundColor=none;startFill=0;endArrow=none;" edge="1" parent="1" source="BQsE2AKRMuMNw9EZnUwW-103" target="BQsE2AKRMuMNw9EZnUwW-94">
          <mxGeometry relative="1" as="geometry">
            <mxPoint x="1860" y="175" as="sourcePoint" />
          </mxGeometry>
        </mxCell>
        <mxCell id="BQsE2AKRMuMNw9EZnUwW-100" style="edgeStyle=orthogonalEdgeStyle;shape=connector;rounded=0;orthogonalLoop=1;jettySize=auto;html=1;entryX=1;entryY=0.5;entryDx=0;entryDy=0;align=center;verticalAlign=middle;fontFamily=Helvetica;fontSize=11;fontColor=default;labelBackgroundColor=none;startFill=0;endArrow=none;" edge="1" parent="1" source="BQsE2AKRMuMNw9EZnUwW-104" target="BQsE2AKRMuMNw9EZnUwW-94">
          <mxGeometry relative="1" as="geometry">
            <mxPoint x="1860" y="215" as="sourcePoint" />
          </mxGeometry>
        </mxCell>
        <mxCell id="BQsE2AKRMuMNw9EZnUwW-101" style="edgeStyle=orthogonalEdgeStyle;shape=connector;rounded=0;orthogonalLoop=1;jettySize=auto;html=1;entryX=1;entryY=0.5;entryDx=0;entryDy=0;align=center;verticalAlign=middle;fontFamily=Helvetica;fontSize=11;fontColor=default;labelBackgroundColor=none;startFill=0;endArrow=none;" edge="1" parent="1" source="BQsE2AKRMuMNw9EZnUwW-105" target="BQsE2AKRMuMNw9EZnUwW-94">
          <mxGeometry relative="1" as="geometry">
            <mxPoint x="1860" y="255" as="sourcePoint" />
          </mxGeometry>
        </mxCell>
        <mxCell id="BQsE2AKRMuMNw9EZnUwW-102" style="edgeStyle=orthogonalEdgeStyle;shape=connector;rounded=0;orthogonalLoop=1;jettySize=auto;html=1;entryX=1;entryY=0.5;entryDx=0;entryDy=0;align=center;verticalAlign=middle;fontFamily=Helvetica;fontSize=11;fontColor=default;labelBackgroundColor=none;startFill=0;endArrow=none;" edge="1" parent="1" source="BQsE2AKRMuMNw9EZnUwW-106" target="BQsE2AKRMuMNw9EZnUwW-94">
          <mxGeometry relative="1" as="geometry">
            <mxPoint x="1860" y="298" as="sourcePoint" />
          </mxGeometry>
        </mxCell>
        <mxCell id="BQsE2AKRMuMNw9EZnUwW-103" value="ticketNr" style="ellipse;whiteSpace=wrap;html=1;align=center;fontStyle=4;labelBackgroundColor=none;" vertex="1" parent="1">
          <mxGeometry x="1860" y="155" width="100" height="40" as="geometry" />
        </mxCell>
        <mxCell id="BQsE2AKRMuMNw9EZnUwW-104" value="dateofIssue" style="ellipse;whiteSpace=wrap;html=1;align=center;labelBackgroundColor=none;" vertex="1" parent="1">
          <mxGeometry x="1860" y="195" width="100" height="40" as="geometry" />
        </mxCell>
        <mxCell id="BQsE2AKRMuMNw9EZnUwW-105" value="price" style="ellipse;whiteSpace=wrap;html=1;align=center;labelBackgroundColor=none;" vertex="1" parent="1">
          <mxGeometry x="1860" y="235" width="100" height="40" as="geometry" />
        </mxCell>
        <mxCell id="BQsE2AKRMuMNw9EZnUwW-106" value="currency" style="ellipse;whiteSpace=wrap;html=1;align=center;labelBackgroundColor=none;" vertex="1" parent="1">
          <mxGeometry x="1860" y="273" width="100" height="40" as="geometry" />
        </mxCell>
        <mxCell id="BQsE2AKRMuMNw9EZnUwW-121" style="edgeStyle=orthogonalEdgeStyle;shape=connector;rounded=0;orthogonalLoop=1;jettySize=auto;html=1;entryX=0.5;entryY=1;entryDx=0;entryDy=0;strokeColor=default;align=center;verticalAlign=middle;fontFamily=Helvetica;fontSize=11;fontColor=default;labelBackgroundColor=none;startFill=0;endArrow=none;" edge="1" parent="1" source="BQsE2AKRMuMNw9EZnUwW-111" target="BQsE2AKRMuMNw9EZnUwW-92">
          <mxGeometry relative="1" as="geometry">
            <mxPoint x="1680" y="405" as="targetPoint" />
          </mxGeometry>
        </mxCell>
        <mxCell id="BQsE2AKRMuMNw9EZnUwW-111" value="Passenger" style="whiteSpace=wrap;html=1;align=center;labelBackgroundColor=none;" vertex="1" parent="1">
          <mxGeometry x="1640" y="535" width="100" height="40" as="geometry" />
        </mxCell>
        <mxCell id="BQsE2AKRMuMNw9EZnUwW-112" style="edgeStyle=orthogonalEdgeStyle;shape=connector;rounded=0;orthogonalLoop=1;jettySize=auto;html=1;entryX=1;entryY=0.5;entryDx=0;entryDy=0;align=center;verticalAlign=middle;fontFamily=Helvetica;fontSize=11;fontColor=default;labelBackgroundColor=none;startFill=0;endArrow=none;exitX=0;exitY=0.5;exitDx=0;exitDy=0;" edge="1" parent="1" source="BQsE2AKRMuMNw9EZnUwW-116" target="BQsE2AKRMuMNw9EZnUwW-111">
          <mxGeometry relative="1" as="geometry">
            <mxPoint x="2320" y="445" as="sourcePoint" />
          </mxGeometry>
        </mxCell>
        <mxCell id="BQsE2AKRMuMNw9EZnUwW-113" style="edgeStyle=orthogonalEdgeStyle;shape=connector;rounded=0;orthogonalLoop=1;jettySize=auto;html=1;entryX=1;entryY=0.5;entryDx=0;entryDy=0;align=center;verticalAlign=middle;fontFamily=Helvetica;fontSize=11;fontColor=default;labelBackgroundColor=none;startFill=0;endArrow=none;" edge="1" parent="1" source="BQsE2AKRMuMNw9EZnUwW-117" target="BQsE2AKRMuMNw9EZnUwW-111">
          <mxGeometry relative="1" as="geometry" />
        </mxCell>
        <mxCell id="BQsE2AKRMuMNw9EZnUwW-114" style="edgeStyle=orthogonalEdgeStyle;shape=connector;rounded=0;orthogonalLoop=1;jettySize=auto;html=1;entryX=1;entryY=0.5;entryDx=0;entryDy=0;align=center;verticalAlign=middle;fontFamily=Helvetica;fontSize=11;fontColor=default;labelBackgroundColor=none;startFill=0;endArrow=none;" edge="1" parent="1" source="BQsE2AKRMuMNw9EZnUwW-119" target="BQsE2AKRMuMNw9EZnUwW-111">
          <mxGeometry relative="1" as="geometry">
            <mxPoint x="1850" y="525" as="sourcePoint" />
          </mxGeometry>
        </mxCell>
        <mxCell id="BQsE2AKRMuMNw9EZnUwW-115" style="edgeStyle=orthogonalEdgeStyle;shape=connector;rounded=0;orthogonalLoop=1;jettySize=auto;html=1;entryX=1;entryY=0.5;entryDx=0;entryDy=0;align=center;verticalAlign=middle;fontFamily=Helvetica;fontSize=11;fontColor=default;labelBackgroundColor=none;startFill=0;endArrow=none;" edge="1" parent="1" source="BQsE2AKRMuMNw9EZnUwW-120" target="BQsE2AKRMuMNw9EZnUwW-111">
          <mxGeometry relative="1" as="geometry">
            <mxPoint x="1850" y="565" as="sourcePoint" />
          </mxGeometry>
        </mxCell>
        <mxCell id="BQsE2AKRMuMNw9EZnUwW-116" value="passengerNr" style="ellipse;whiteSpace=wrap;html=1;align=center;fontStyle=4;labelBackgroundColor=none;" vertex="1" parent="1">
          <mxGeometry x="1850" y="425" width="100" height="40" as="geometry" />
        </mxCell>
        <mxCell id="BQsE2AKRMuMNw9EZnUwW-117" value="name" style="ellipse;whiteSpace=wrap;html=1;align=center;labelBackgroundColor=none;" vertex="1" parent="1">
          <mxGeometry x="1850" y="465" width="100" height="40" as="geometry" />
        </mxCell>
        <mxCell id="BQsE2AKRMuMNw9EZnUwW-118" value="" style="edgeStyle=orthogonalEdgeStyle;shape=connector;rounded=0;orthogonalLoop=1;jettySize=auto;html=1;entryX=0;entryY=0.5;entryDx=0;entryDy=0;align=center;verticalAlign=middle;fontFamily=Helvetica;fontSize=11;fontColor=default;labelBackgroundColor=none;startFill=0;endArrow=none;" edge="1" parent="1" target="BQsE2AKRMuMNw9EZnUwW-119">
          <mxGeometry relative="1" as="geometry">
            <mxPoint x="1850" y="525" as="sourcePoint" />
            <mxPoint x="1740" y="555" as="targetPoint" />
          </mxGeometry>
        </mxCell>
        <mxCell id="BQsE2AKRMuMNw9EZnUwW-119" value="gender" style="ellipse;whiteSpace=wrap;html=1;align=center;labelBackgroundColor=none;" vertex="1" parent="1">
          <mxGeometry x="1850" y="505" width="100" height="40" as="geometry" />
        </mxCell>
        <mxCell id="BQsE2AKRMuMNw9EZnUwW-120" value="title" style="ellipse;whiteSpace=wrap;html=1;align=center;labelBackgroundColor=none;" vertex="1" parent="1">
          <mxGeometry x="1850" y="545" width="100" height="40" as="geometry" />
        </mxCell>
        <mxCell id="BQsE2AKRMuMNw9EZnUwW-122" value="Boardingcard" style="whiteSpace=wrap;html=1;align=center;labelBackgroundColor=none;" vertex="1" parent="1">
          <mxGeometry x="1640" y="-120" width="100" height="40" as="geometry" />
        </mxCell>
        <mxCell id="BQsE2AKRMuMNw9EZnUwW-127" style="edgeStyle=orthogonalEdgeStyle;shape=connector;rounded=0;orthogonalLoop=1;jettySize=auto;html=1;entryX=1;entryY=0.5;entryDx=0;entryDy=0;strokeColor=default;align=center;verticalAlign=middle;fontFamily=Helvetica;fontSize=11;fontColor=default;labelBackgroundColor=none;startFill=0;endArrow=none;" edge="1" parent="1" source="BQsE2AKRMuMNw9EZnUwW-128" target="BQsE2AKRMuMNw9EZnUwW-122">
          <mxGeometry relative="1" as="geometry" />
        </mxCell>
        <mxCell id="BQsE2AKRMuMNw9EZnUwW-128" value="bcNr" style="ellipse;whiteSpace=wrap;html=1;align=center;fontStyle=4;labelBackgroundColor=none;" vertex="1" parent="1">
          <mxGeometry x="1840" y="-140" width="100" height="40" as="geometry" />
        </mxCell>
        <mxCell id="BQsE2AKRMuMNw9EZnUwW-129" style="edgeStyle=orthogonalEdgeStyle;shape=connector;rounded=0;orthogonalLoop=1;jettySize=auto;html=1;entryX=1;entryY=0.5;entryDx=0;entryDy=0;strokeColor=default;align=center;verticalAlign=middle;fontFamily=Helvetica;fontSize=11;fontColor=default;labelBackgroundColor=none;startFill=0;endArrow=none;" edge="1" parent="1" source="BQsE2AKRMuMNw9EZnUwW-130" target="BQsE2AKRMuMNw9EZnUwW-122">
          <mxGeometry relative="1" as="geometry" />
        </mxCell>
        <mxCell id="BQsE2AKRMuMNw9EZnUwW-130" value="row" style="ellipse;whiteSpace=wrap;html=1;align=center;labelBackgroundColor=none;" vertex="1" parent="1">
          <mxGeometry x="1840" y="-100" width="100" height="40" as="geometry" />
        </mxCell>
        <mxCell id="BQsE2AKRMuMNw9EZnUwW-133" value="" style="edgeStyle=orthogonalEdgeStyle;shape=connector;rounded=0;orthogonalLoop=1;jettySize=auto;html=1;entryX=0.5;entryY=1;entryDx=0;entryDy=0;strokeColor=default;align=center;verticalAlign=middle;fontFamily=Helvetica;fontSize=11;fontColor=default;labelBackgroundColor=none;startFill=0;endArrow=none;" edge="1" parent="1" source="BQsE2AKRMuMNw9EZnUwW-94" target="BQsE2AKRMuMNw9EZnUwW-132">
          <mxGeometry relative="1" as="geometry">
            <mxPoint x="1260" y="248" as="sourcePoint" />
            <mxPoint x="1260" y="87" as="targetPoint" />
          </mxGeometry>
        </mxCell>
        <mxCell id="BQsE2AKRMuMNw9EZnUwW-132" value="relates" style="shape=rhombus;perimeter=rhombusPerimeter;whiteSpace=wrap;html=1;align=center;labelBackgroundColor=none;" vertex="1" parent="1">
          <mxGeometry x="1630" y="50" width="120" height="60" as="geometry" />
        </mxCell>
        <mxCell id="BQsE2AKRMuMNw9EZnUwW-136" value="" style="edgeStyle=orthogonalEdgeStyle;shape=connector;rounded=0;orthogonalLoop=1;jettySize=auto;html=1;entryX=0;entryY=0.5;entryDx=0;entryDy=0;strokeColor=default;align=center;verticalAlign=middle;fontFamily=Helvetica;fontSize=11;fontColor=default;labelBackgroundColor=none;startFill=0;endArrow=none;" edge="1" parent="1" source="BQsE2AKRMuMNw9EZnUwW-85" target="BQsE2AKRMuMNw9EZnUwW-135">
          <mxGeometry relative="1" as="geometry">
            <mxPoint x="885" y="-100" as="sourcePoint" />
            <mxPoint x="1210" y="-100" as="targetPoint" />
          </mxGeometry>
        </mxCell>
        <mxCell id="BQsE2AKRMuMNw9EZnUwW-135" value="assigned" style="shape=rhombus;perimeter=rhombusPerimeter;whiteSpace=wrap;html=1;align=center;labelBackgroundColor=none;" vertex="1" parent="1">
          <mxGeometry x="1163" y="-130" width="120" height="60" as="geometry" />
        </mxCell>
        <mxCell id="BQsE2AKRMuMNw9EZnUwW-170" style="edgeStyle=orthogonalEdgeStyle;shape=connector;rounded=0;orthogonalLoop=1;jettySize=auto;html=1;exitX=0.5;exitY=1;exitDx=0;exitDy=0;entryX=0.5;entryY=0;entryDx=0;entryDy=0;strokeColor=default;align=center;verticalAlign=middle;fontFamily=Helvetica;fontSize=11;fontColor=default;labelBackgroundColor=none;startFill=0;endArrow=none;" edge="1" parent="1" source="BQsE2AKRMuMNw9EZnUwW-137" target="BQsE2AKRMuMNw9EZnUwW-85">
          <mxGeometry relative="1" as="geometry" />
        </mxCell>
        <mxCell id="BQsE2AKRMuMNw9EZnUwW-137" value="date" style="ellipse;whiteSpace=wrap;html=1;align=center;labelBackgroundColor=none;" vertex="1" parent="1">
          <mxGeometry x="790" y="-220" width="100" height="40" as="geometry" />
        </mxCell>
        <mxCell id="BQsE2AKRMuMNw9EZnUwW-149" style="edgeStyle=orthogonalEdgeStyle;shape=connector;rounded=0;orthogonalLoop=1;jettySize=auto;html=1;entryX=0;entryY=0.75;entryDx=0;entryDy=0;strokeColor=default;align=center;verticalAlign=middle;fontFamily=Helvetica;fontSize=11;fontColor=default;labelBackgroundColor=none;startFill=0;endArrow=none;" edge="1" parent="1" source="BQsE2AKRMuMNw9EZnUwW-138" target="BQsE2AKRMuMNw9EZnUwW-43">
          <mxGeometry relative="1" as="geometry" />
        </mxCell>
        <mxCell id="BQsE2AKRMuMNw9EZnUwW-138" value="flightNr" style="ellipse;whiteSpace=wrap;html=1;align=center;fontStyle=4;labelBackgroundColor=none;" vertex="1" parent="1">
          <mxGeometry x="570" y="330" width="100" height="40" as="geometry" />
        </mxCell>
        <mxCell id="BQsE2AKRMuMNw9EZnUwW-151" style="edgeStyle=orthogonalEdgeStyle;shape=connector;rounded=0;orthogonalLoop=1;jettySize=auto;html=1;entryX=0;entryY=0.75;entryDx=0;entryDy=0;strokeColor=default;align=center;verticalAlign=middle;fontFamily=Helvetica;fontSize=11;fontColor=default;labelBackgroundColor=none;startFill=0;endArrow=none;" edge="1" parent="1" source="BQsE2AKRMuMNw9EZnUwW-139" target="BQsE2AKRMuMNw9EZnUwW-43">
          <mxGeometry relative="1" as="geometry" />
        </mxCell>
        <mxCell id="BQsE2AKRMuMNw9EZnUwW-139" value="sheduledDepature" style="ellipse;whiteSpace=wrap;html=1;align=center;labelBackgroundColor=none;" vertex="1" parent="1">
          <mxGeometry x="570" y="370" width="100" height="40" as="geometry" />
        </mxCell>
        <mxCell id="BQsE2AKRMuMNw9EZnUwW-150" style="edgeStyle=orthogonalEdgeStyle;shape=connector;rounded=0;orthogonalLoop=1;jettySize=auto;html=1;entryX=0;entryY=0.75;entryDx=0;entryDy=0;strokeColor=default;align=center;verticalAlign=middle;fontFamily=Helvetica;fontSize=11;fontColor=default;labelBackgroundColor=none;startFill=0;endArrow=none;" edge="1" parent="1" source="BQsE2AKRMuMNw9EZnUwW-140" target="BQsE2AKRMuMNw9EZnUwW-43">
          <mxGeometry relative="1" as="geometry" />
        </mxCell>
        <mxCell id="BQsE2AKRMuMNw9EZnUwW-140" value="sheduledArrivial" style="ellipse;whiteSpace=wrap;html=1;align=center;labelBackgroundColor=none;" vertex="1" parent="1">
          <mxGeometry x="570" y="410" width="100" height="40" as="geometry" />
        </mxCell>
        <mxCell id="BQsE2AKRMuMNw9EZnUwW-148" value="DayOfWeek" style="whiteSpace=wrap;html=1;align=center;labelBackgroundColor=none;" vertex="1" parent="1">
          <mxGeometry x="1283" y="470" width="100" height="40" as="geometry" />
        </mxCell>
        <mxCell id="BQsE2AKRMuMNw9EZnUwW-154" value="" style="edgeStyle=orthogonalEdgeStyle;shape=connector;rounded=0;orthogonalLoop=1;jettySize=auto;html=1;exitX=1;exitY=0.75;exitDx=0;exitDy=0;entryX=0;entryY=0.5;entryDx=0;entryDy=0;strokeColor=default;align=center;verticalAlign=middle;fontFamily=Helvetica;fontSize=11;fontColor=default;labelBackgroundColor=none;startFill=0;endArrow=none;" edge="1" parent="1" source="BQsE2AKRMuMNw9EZnUwW-43" target="BQsE2AKRMuMNw9EZnUwW-153">
          <mxGeometry relative="1" as="geometry">
            <mxPoint x="885" y="280" as="sourcePoint" />
            <mxPoint x="1120" y="390" as="targetPoint" />
            <Array as="points">
              <mxPoint x="992" y="280" />
              <mxPoint x="992" y="430" />
            </Array>
          </mxGeometry>
        </mxCell>
        <mxCell id="BQsE2AKRMuMNw9EZnUwW-153" value="scheduled" style="shape=rhombus;perimeter=rhombusPerimeter;whiteSpace=wrap;html=1;align=center;labelBackgroundColor=none;" vertex="1" parent="1">
          <mxGeometry x="1098" y="400" width="120" height="60" as="geometry" />
        </mxCell>
        <mxCell id="BQsE2AKRMuMNw9EZnUwW-155" value="M" style="text;html=1;align=center;verticalAlign=middle;resizable=0;points=[];autosize=1;strokeColor=none;fillColor=none;fontFamily=Helvetica;fontSize=11;fontColor=default;labelBackgroundColor=none;" vertex="1" parent="1">
          <mxGeometry x="960" y="290" width="30" height="30" as="geometry" />
        </mxCell>
        <mxCell id="BQsE2AKRMuMNw9EZnUwW-156" value="N" style="text;html=1;align=center;verticalAlign=middle;resizable=0;points=[];autosize=1;strokeColor=none;fillColor=none;fontFamily=Helvetica;fontSize=11;fontColor=default;labelBackgroundColor=none;" vertex="1" parent="1">
          <mxGeometry x="1211" y="435" width="30" height="30" as="geometry" />
        </mxCell>
        <mxCell id="BQsE2AKRMuMNw9EZnUwW-158" value="&lt;h1 style=&quot;margin-top: 0px;&quot;&gt;Entities&lt;/h1&gt;&lt;div&gt;&lt;font style=&quot;font-size: 14px;&quot;&gt;Airline(&lt;u style=&quot;&quot;&gt;airlineCode,&lt;/u&gt; name, headquarter)&lt;/font&gt;&lt;/div&gt;&lt;div&gt;&lt;font style=&quot;font-size: 14px;&quot;&gt;Aircraft(intNr, aircraftNr, name, dateEntryService)&lt;/font&gt;&lt;/div&gt;&lt;div&gt;&lt;font style=&quot;font-size: 14px;&quot;&gt;Aircarfttype(&lt;u&gt;typeidentification&lt;/u&gt;, manufacturer, range, seats, rows)&lt;/font&gt;&lt;/div&gt;&lt;div&gt;&lt;font style=&quot;font-size: 14px;&quot;&gt;Flightmission(&lt;u&gt;flightmissionID&lt;/u&gt;, date, depature, arrival)&lt;/font&gt;&lt;/div&gt;&lt;div&gt;&lt;font style=&quot;font-size: 14px;&quot;&gt;Flight(flightNr, sheduledDepature, sheduledArrivial)&lt;/font&gt;&lt;/div&gt;&lt;div&gt;&lt;font style=&quot;font-size: 14px;&quot;&gt;Airport(&lt;u&gt;airportcode&lt;/u&gt;, name, city, country, capacity)&lt;/font&gt;&lt;/div&gt;&lt;div&gt;&lt;font style=&quot;font-size: 14px;&quot;&gt;Route(&lt;u&gt;RoutID&lt;/u&gt;, distgance)&lt;/font&gt;&lt;/div&gt;&lt;div&gt;&lt;font style=&quot;font-size: 14px;&quot;&gt;DayOfWeek(dayID, dayName)&lt;/font&gt;&lt;/div&gt;&lt;div&gt;&lt;font style=&quot;font-size: 14px;&quot;&gt;Boardingcard(&lt;u&gt;bcNr&lt;/u&gt;, seat, row)&lt;/font&gt;&lt;/div&gt;&lt;div&gt;&lt;span style=&quot;font-size: 14px;&quot;&gt;Ticket(&lt;u&gt;ticketNr&lt;/u&gt;, dateofIssue, price, currency)&lt;/span&gt;&lt;/div&gt;&lt;div&gt;&lt;span style=&quot;font-size: 14px;&quot;&gt;Passenger(&lt;u&gt;passengerNr&lt;/u&gt;, name gender , title)&lt;/span&gt;&lt;/div&gt;&lt;div&gt;&lt;br&gt;&lt;/div&gt;&lt;div&gt;&lt;br&gt;&lt;/div&gt;&lt;div&gt;&lt;br&gt;&lt;/div&gt;&lt;div&gt;&lt;br&gt;&lt;/div&gt;&lt;h1 style=&quot;margin-top: 0px;&quot;&gt;&amp;nbsp;Relations&lt;/h1&gt;&lt;div&gt;&lt;font style=&quot;font-size: 14px;&quot;&gt;owns(ailineCode, &lt;u style=&quot;&quot;&gt;intNr&lt;/u&gt;)&lt;/font&gt;&lt;/div&gt;&lt;div&gt;&lt;font style=&quot;font-size: 14px;&quot;&gt;carried out(&lt;u&gt;flightmissionID&lt;/u&gt;, flightNr)&lt;/font&gt;&lt;/div&gt;&lt;div&gt;&lt;font style=&quot;font-size: 14px;&quot;&gt;belongTo(&lt;u&gt;intNr&lt;/u&gt;, typeidentification)&lt;/font&gt;&lt;/div&gt;&lt;div&gt;&lt;font style=&quot;font-size: 14px;&quot;&gt;fliest(&lt;u&gt;flightmissionID&lt;/u&gt;, intNr)&lt;/font&gt;&lt;/div&gt;&lt;div&gt;&lt;font style=&quot;font-size: 14px;&quot;&gt;carriedOut&lt;u&gt;(flightmissionID&lt;/u&gt;, flightNr)&lt;/font&gt;&lt;/div&gt;&lt;div&gt;&lt;font style=&quot;font-size: 14px;&quot;&gt;dessigantedTo(typeidentification, &lt;u style=&quot;&quot;&gt;flightNr&lt;/u&gt;)&lt;/font&gt;&lt;/div&gt;&lt;div&gt;&lt;font style=&quot;font-size: 14px;&quot;&gt;departes(&lt;u&gt;flightNr&lt;/u&gt;, airportcode)&lt;/font&gt;&lt;/div&gt;&lt;div&gt;&lt;font style=&quot;font-size: 14px;&quot;&gt;arrives(&lt;u&gt;flightNr&lt;/u&gt;, airportcode)&lt;/font&gt;&lt;/div&gt;&lt;div&gt;&lt;font style=&quot;font-size: 14px;&quot;&gt;from(airportcode, &lt;u&gt;routID&lt;/u&gt;)&lt;/font&gt;&lt;/div&gt;&lt;div&gt;&lt;font style=&quot;font-size: 14px;&quot;&gt;to(airportcode, &lt;u&gt;routID&lt;/u&gt;)&lt;/font&gt;&lt;/div&gt;&lt;div&gt;&lt;font style=&quot;font-size: 14px;&quot;&gt;scheduled(&lt;u&gt;dayID, flightNr&lt;/u&gt;)&lt;/font&gt;&lt;/div&gt;&lt;div&gt;&lt;font style=&quot;font-size: 14px;&quot;&gt;assigned(&lt;u&gt;bcNr&lt;/u&gt;, flightmissionID)&lt;/font&gt;&lt;/div&gt;&lt;div&gt;&lt;font style=&quot;font-size: 14px;&quot;&gt;relates(ticketNr, bcNr)&lt;/font&gt;&lt;/div&gt;&lt;div&gt;&lt;font style=&quot;font-size: 14px;&quot;&gt;corresponds(flightNr, &lt;u&gt;ticketNr&lt;/u&gt;)&lt;/font&gt;&lt;/div&gt;&lt;div&gt;&lt;font style=&quot;font-size: 14px;&quot;&gt;books(&lt;u&gt;ticketNr&lt;/u&gt;, passengerNr)&lt;/font&gt;&lt;/div&gt;" style="text;html=1;whiteSpace=wrap;overflow=hidden;rounded=0;fontFamily=Helvetica;fontSize=11;fontColor=default;labelBackgroundColor=none;" vertex="1" parent="1">
          <mxGeometry x="80" y="493" width="500" height="580" as="geometry" />
        </mxCell>
        <mxCell id="BQsE2AKRMuMNw9EZnUwW-169" style="edgeStyle=orthogonalEdgeStyle;shape=connector;rounded=0;orthogonalLoop=1;jettySize=auto;html=1;entryX=0.5;entryY=0;entryDx=0;entryDy=0;strokeColor=default;align=center;verticalAlign=middle;fontFamily=Helvetica;fontSize=11;fontColor=default;labelBackgroundColor=none;startFill=0;endArrow=none;" edge="1" parent="1" source="BQsE2AKRMuMNw9EZnUwW-159" target="BQsE2AKRMuMNw9EZnUwW-85">
          <mxGeometry relative="1" as="geometry" />
        </mxCell>
        <mxCell id="BQsE2AKRMuMNw9EZnUwW-159" value="flightmissionID" style="ellipse;whiteSpace=wrap;html=1;align=center;fontStyle=4;fontFamily=Helvetica;fontSize=11;fontColor=default;labelBackgroundColor=none;" vertex="1" parent="1">
          <mxGeometry x="690" y="-220" width="100" height="40" as="geometry" />
        </mxCell>
        <mxCell id="BQsE2AKRMuMNw9EZnUwW-160" value="N" style="text;html=1;align=center;verticalAlign=middle;resizable=0;points=[];autosize=1;strokeColor=none;fillColor=none;fontFamily=Helvetica;fontSize=11;fontColor=default;labelBackgroundColor=none;" vertex="1" parent="1">
          <mxGeometry x="795" y="-82" width="30" height="30" as="geometry" />
        </mxCell>
        <mxCell id="BQsE2AKRMuMNw9EZnUwW-161" value="1" style="text;html=1;align=center;verticalAlign=middle;resizable=0;points=[];autosize=1;strokeColor=none;fillColor=none;fontFamily=Helvetica;fontSize=11;fontColor=default;labelBackgroundColor=none;" vertex="1" parent="1">
          <mxGeometry x="795" y="208" width="30" height="30" as="geometry" />
        </mxCell>
        <mxCell id="BQsE2AKRMuMNw9EZnUwW-162" value="N" style="text;html=1;align=center;verticalAlign=middle;resizable=0;points=[];autosize=1;strokeColor=none;fillColor=none;fontFamily=Helvetica;fontSize=11;fontColor=default;labelBackgroundColor=none;" vertex="1" parent="1">
          <mxGeometry x="295" y="-132" width="30" height="30" as="geometry" />
        </mxCell>
        <mxCell id="BQsE2AKRMuMNw9EZnUwW-163" value="1" style="text;html=1;align=center;verticalAlign=middle;resizable=0;points=[];autosize=1;strokeColor=none;fillColor=none;fontFamily=Helvetica;fontSize=11;fontColor=default;labelBackgroundColor=none;" vertex="1" parent="1">
          <mxGeometry x="45" y="-132" width="30" height="30" as="geometry" />
        </mxCell>
        <mxCell id="BQsE2AKRMuMNw9EZnUwW-164" value="1" style="text;html=1;align=center;verticalAlign=middle;resizable=0;points=[];autosize=1;strokeColor=none;fillColor=none;fontFamily=Helvetica;fontSize=11;fontColor=default;labelBackgroundColor=none;" vertex="1" parent="1">
          <mxGeometry x="345" y="208" width="30" height="30" as="geometry" />
        </mxCell>
        <mxCell id="BQsE2AKRMuMNw9EZnUwW-165" value="N" style="text;html=1;align=center;verticalAlign=middle;resizable=0;points=[];autosize=1;strokeColor=none;fillColor=none;fontFamily=Helvetica;fontSize=11;fontColor=default;labelBackgroundColor=none;" vertex="1" parent="1">
          <mxGeometry x="345" y="-72" width="30" height="30" as="geometry" />
        </mxCell>
        <mxCell id="BQsE2AKRMuMNw9EZnUwW-166" value="dateEntryService" style="ellipse;whiteSpace=wrap;html=1;align=center;labelBackgroundColor=none;" vertex="1" parent="1">
          <mxGeometry x="425" y="-220" width="100" height="40" as="geometry" />
        </mxCell>
        <mxCell id="BQsE2AKRMuMNw9EZnUwW-171" style="edgeStyle=orthogonalEdgeStyle;shape=connector;rounded=0;orthogonalLoop=1;jettySize=auto;html=1;entryX=0.5;entryY=0;entryDx=0;entryDy=0;strokeColor=default;align=center;verticalAlign=middle;fontFamily=Helvetica;fontSize=11;fontColor=default;labelBackgroundColor=none;startFill=0;endArrow=none;" edge="1" parent="1" source="BQsE2AKRMuMNw9EZnUwW-167" target="BQsE2AKRMuMNw9EZnUwW-85">
          <mxGeometry relative="1" as="geometry">
            <Array as="points">
              <mxPoint x="945" y="-150" />
              <mxPoint x="835" y="-150" />
            </Array>
          </mxGeometry>
        </mxCell>
        <mxCell id="BQsE2AKRMuMNw9EZnUwW-167" value="depature" style="ellipse;whiteSpace=wrap;html=1;align=center;labelBackgroundColor=none;" vertex="1" parent="1">
          <mxGeometry x="895" y="-220" width="100" height="40" as="geometry" />
        </mxCell>
        <mxCell id="BQsE2AKRMuMNw9EZnUwW-172" style="edgeStyle=orthogonalEdgeStyle;shape=connector;rounded=0;orthogonalLoop=1;jettySize=auto;html=1;entryX=0.5;entryY=0;entryDx=0;entryDy=0;strokeColor=default;align=center;verticalAlign=middle;fontFamily=Helvetica;fontSize=11;fontColor=default;labelBackgroundColor=none;startFill=0;endArrow=none;" edge="1" parent="1" source="BQsE2AKRMuMNw9EZnUwW-168" target="BQsE2AKRMuMNw9EZnUwW-85">
          <mxGeometry relative="1" as="geometry">
            <Array as="points">
              <mxPoint x="1048" y="-150" />
              <mxPoint x="835" y="-150" />
            </Array>
          </mxGeometry>
        </mxCell>
        <mxCell id="BQsE2AKRMuMNw9EZnUwW-168" value="arrival" style="ellipse;whiteSpace=wrap;html=1;align=center;labelBackgroundColor=none;" vertex="1" parent="1">
          <mxGeometry x="998" y="-220" width="100" height="40" as="geometry" />
        </mxCell>
        <mxCell id="BQsE2AKRMuMNw9EZnUwW-173" value="N" style="text;html=1;align=center;verticalAlign=middle;resizable=0;points=[];autosize=1;strokeColor=none;fillColor=none;fontFamily=Helvetica;fontSize=11;fontColor=default;labelBackgroundColor=none;" vertex="1" parent="1">
          <mxGeometry x="725" y="-142" width="30" height="30" as="geometry" />
        </mxCell>
        <mxCell id="BQsE2AKRMuMNw9EZnUwW-174" value="1" style="text;html=1;align=center;verticalAlign=middle;resizable=0;points=[];autosize=1;strokeColor=none;fillColor=none;fontFamily=Helvetica;fontSize=11;fontColor=default;labelBackgroundColor=none;" vertex="1" parent="1">
          <mxGeometry x="455" y="-142" width="30" height="30" as="geometry" />
        </mxCell>
        <mxCell id="BQsE2AKRMuMNw9EZnUwW-175" value="N" style="text;html=1;align=center;verticalAlign=middle;resizable=0;points=[];autosize=1;strokeColor=none;fillColor=none;fontFamily=Helvetica;fontSize=11;fontColor=default;labelBackgroundColor=none;" vertex="1" parent="1">
          <mxGeometry x="690" y="238" width="30" height="30" as="geometry" />
        </mxCell>
        <mxCell id="BQsE2AKRMuMNw9EZnUwW-176" value="1" style="text;html=1;align=center;verticalAlign=middle;resizable=0;points=[];autosize=1;strokeColor=none;fillColor=none;fontFamily=Helvetica;fontSize=11;fontColor=default;labelBackgroundColor=none;" vertex="1" parent="1">
          <mxGeometry x="455" y="238" width="30" height="30" as="geometry" />
        </mxCell>
        <mxCell id="BQsE2AKRMuMNw9EZnUwW-182" style="edgeStyle=orthogonalEdgeStyle;shape=connector;rounded=0;orthogonalLoop=1;jettySize=auto;html=1;entryX=1;entryY=0.5;entryDx=0;entryDy=0;strokeColor=default;align=center;verticalAlign=middle;fontFamily=Helvetica;fontSize=11;fontColor=default;labelBackgroundColor=none;startFill=0;endArrow=none;" edge="1" parent="1" source="BQsE2AKRMuMNw9EZnUwW-177" target="BQsE2AKRMuMNw9EZnUwW-46">
          <mxGeometry relative="1" as="geometry" />
        </mxCell>
        <mxCell id="BQsE2AKRMuMNw9EZnUwW-177" value="airportcode" style="ellipse;whiteSpace=wrap;html=1;align=center;fontStyle=4;labelBackgroundColor=none;" vertex="1" parent="1">
          <mxGeometry x="1030" y="660" width="100" height="40" as="geometry" />
        </mxCell>
        <mxCell id="BQsE2AKRMuMNw9EZnUwW-186" style="edgeStyle=orthogonalEdgeStyle;shape=connector;rounded=0;orthogonalLoop=1;jettySize=auto;html=1;entryX=1;entryY=0.5;entryDx=0;entryDy=0;strokeColor=default;align=center;verticalAlign=middle;fontFamily=Helvetica;fontSize=11;fontColor=default;labelBackgroundColor=none;startFill=0;endArrow=none;" edge="1" parent="1" source="BQsE2AKRMuMNw9EZnUwW-178" target="BQsE2AKRMuMNw9EZnUwW-46">
          <mxGeometry relative="1" as="geometry" />
        </mxCell>
        <mxCell id="BQsE2AKRMuMNw9EZnUwW-178" value="name" style="ellipse;whiteSpace=wrap;html=1;align=center;fontFamily=Helvetica;fontSize=11;labelBackgroundColor=none;" vertex="1" parent="1">
          <mxGeometry x="1030" y="700" width="100" height="40" as="geometry" />
        </mxCell>
        <mxCell id="BQsE2AKRMuMNw9EZnUwW-184" style="edgeStyle=orthogonalEdgeStyle;shape=connector;rounded=0;orthogonalLoop=1;jettySize=auto;html=1;strokeColor=default;align=center;verticalAlign=middle;fontFamily=Helvetica;fontSize=11;fontColor=default;labelBackgroundColor=none;startFill=0;endArrow=none;" edge="1" parent="1" source="BQsE2AKRMuMNw9EZnUwW-179">
          <mxGeometry relative="1" as="geometry">
            <mxPoint x="890" y="750" as="targetPoint" />
          </mxGeometry>
        </mxCell>
        <mxCell id="BQsE2AKRMuMNw9EZnUwW-179" value="city" style="ellipse;whiteSpace=wrap;html=1;align=center;fontFamily=Helvetica;fontSize=11;labelBackgroundColor=none;" vertex="1" parent="1">
          <mxGeometry x="1030" y="740" width="100" height="40" as="geometry" />
        </mxCell>
        <mxCell id="BQsE2AKRMuMNw9EZnUwW-187" style="edgeStyle=orthogonalEdgeStyle;shape=connector;rounded=0;orthogonalLoop=1;jettySize=auto;html=1;entryX=1;entryY=0.5;entryDx=0;entryDy=0;strokeColor=default;align=center;verticalAlign=middle;fontFamily=Helvetica;fontSize=11;fontColor=default;labelBackgroundColor=none;startFill=0;endArrow=none;" edge="1" parent="1" source="BQsE2AKRMuMNw9EZnUwW-180" target="BQsE2AKRMuMNw9EZnUwW-46">
          <mxGeometry relative="1" as="geometry" />
        </mxCell>
        <mxCell id="BQsE2AKRMuMNw9EZnUwW-180" value="country" style="ellipse;whiteSpace=wrap;html=1;align=center;fontFamily=Helvetica;fontSize=11;labelBackgroundColor=none;" vertex="1" parent="1">
          <mxGeometry x="1030" y="780" width="100" height="40" as="geometry" />
        </mxCell>
        <mxCell id="BQsE2AKRMuMNw9EZnUwW-188" style="edgeStyle=orthogonalEdgeStyle;shape=connector;rounded=0;orthogonalLoop=1;jettySize=auto;html=1;strokeColor=default;align=center;verticalAlign=middle;fontFamily=Helvetica;fontSize=11;fontColor=default;labelBackgroundColor=none;startFill=0;endArrow=none;exitX=0;exitY=0.5;exitDx=0;exitDy=0;" edge="1" parent="1" source="BQsE2AKRMuMNw9EZnUwW-181">
          <mxGeometry relative="1" as="geometry">
            <mxPoint x="890" y="750" as="targetPoint" />
            <Array as="points">
              <mxPoint x="960" y="840" />
              <mxPoint x="960" y="750" />
            </Array>
          </mxGeometry>
        </mxCell>
        <mxCell id="BQsE2AKRMuMNw9EZnUwW-181" value="capacity" style="ellipse;whiteSpace=wrap;html=1;align=center;fontFamily=Helvetica;fontSize=11;labelBackgroundColor=none;" vertex="1" parent="1">
          <mxGeometry x="1030" y="820" width="100" height="40" as="geometry" />
        </mxCell>
        <mxCell id="BQsE2AKRMuMNw9EZnUwW-189" value="N" style="text;html=1;align=center;verticalAlign=middle;resizable=0;points=[];autosize=1;strokeColor=none;fillColor=none;fontFamily=Helvetica;fontSize=11;fontColor=default;labelBackgroundColor=none;" vertex="1" parent="1">
          <mxGeometry x="855" y="288" width="30" height="30" as="geometry" />
        </mxCell>
        <mxCell id="BQsE2AKRMuMNw9EZnUwW-190" value="N" style="text;html=1;align=center;verticalAlign=middle;resizable=0;points=[];autosize=1;strokeColor=none;fillColor=none;fontFamily=Helvetica;fontSize=11;fontColor=default;labelBackgroundColor=none;" vertex="1" parent="1">
          <mxGeometry x="755" y="288" width="30" height="30" as="geometry" />
        </mxCell>
        <mxCell id="BQsE2AKRMuMNw9EZnUwW-195" value="Route" style="shape=label;whiteSpace=wrap;html=1;align=center;labelBackgroundColor=none;" vertex="1" parent="1">
          <mxGeometry x="780" y="990" width="120" height="60" as="geometry" />
        </mxCell>
        <mxCell id="BQsE2AKRMuMNw9EZnUwW-197" style="edgeStyle=orthogonalEdgeStyle;shape=connector;rounded=0;orthogonalLoop=1;jettySize=auto;html=1;entryX=0.5;entryY=1;entryDx=0;entryDy=0;strokeColor=default;align=center;verticalAlign=middle;fontFamily=Helvetica;fontSize=11;fontColor=default;labelBackgroundColor=none;startFill=0;endArrow=none;" edge="1" parent="1" source="BQsE2AKRMuMNw9EZnUwW-196" target="BQsE2AKRMuMNw9EZnUwW-195">
          <mxGeometry relative="1" as="geometry" />
        </mxCell>
        <mxCell id="BQsE2AKRMuMNw9EZnUwW-196" value="distance" style="ellipse;whiteSpace=wrap;html=1;align=center;fontFamily=Helvetica;fontSize=11;labelBackgroundColor=none;" vertex="1" parent="1">
          <mxGeometry x="790" y="1110" width="100" height="40" as="geometry" />
        </mxCell>
        <mxCell id="BQsE2AKRMuMNw9EZnUwW-198" value="1" style="text;html=1;align=center;verticalAlign=middle;resizable=0;points=[];autosize=1;strokeColor=none;fillColor=none;fontFamily=Helvetica;fontSize=11;fontColor=default;labelBackgroundColor=none;" vertex="1" parent="1">
          <mxGeometry x="765" y="768" width="30" height="30" as="geometry" />
        </mxCell>
        <mxCell id="BQsE2AKRMuMNw9EZnUwW-201" value="N" style="text;html=1;align=center;verticalAlign=middle;resizable=0;points=[];autosize=1;strokeColor=none;fillColor=none;fontFamily=Helvetica;fontSize=11;fontColor=default;labelBackgroundColor=none;" vertex="1" parent="1">
          <mxGeometry x="1645" y="288" width="30" height="30" as="geometry" />
        </mxCell>
        <mxCell id="BQsE2AKRMuMNw9EZnUwW-202" value="1" style="text;html=1;align=center;verticalAlign=middle;resizable=0;points=[];autosize=1;strokeColor=none;fillColor=none;fontFamily=Helvetica;fontSize=11;fontColor=default;labelBackgroundColor=none;" vertex="1" parent="1">
          <mxGeometry x="1645" y="-72" width="30" height="30" as="geometry" />
        </mxCell>
        <mxCell id="BQsE2AKRMuMNw9EZnUwW-203" value="1" style="text;html=1;align=center;verticalAlign=middle;resizable=0;points=[];autosize=1;strokeColor=none;fillColor=none;fontFamily=Helvetica;fontSize=11;fontColor=default;labelBackgroundColor=none;" vertex="1" parent="1">
          <mxGeometry x="1645" y="208" width="30" height="30" as="geometry" />
        </mxCell>
        <mxCell id="BQsE2AKRMuMNw9EZnUwW-204" value="N" style="text;html=1;align=center;verticalAlign=middle;resizable=0;points=[];autosize=1;strokeColor=none;fillColor=none;fontFamily=Helvetica;fontSize=11;fontColor=default;labelBackgroundColor=none;" vertex="1" parent="1">
          <mxGeometry x="1575" y="-132" width="30" height="30" as="geometry" />
        </mxCell>
        <mxCell id="BQsE2AKRMuMNw9EZnUwW-205" value="1" style="text;html=1;align=center;verticalAlign=middle;resizable=0;points=[];autosize=1;strokeColor=none;fillColor=none;fontFamily=Helvetica;fontSize=11;fontColor=default;labelBackgroundColor=none;" vertex="1" parent="1">
          <mxGeometry x="905" y="-132" width="30" height="30" as="geometry" />
        </mxCell>
        <mxCell id="BQsE2AKRMuMNw9EZnUwW-206" value="1" style="text;html=1;align=center;verticalAlign=middle;resizable=0;points=[];autosize=1;strokeColor=none;fillColor=none;fontFamily=Helvetica;fontSize=11;fontColor=default;labelBackgroundColor=none;" vertex="1" parent="1">
          <mxGeometry x="1645" y="498" width="30" height="30" as="geometry" />
        </mxCell>
        <mxCell id="BQsE2AKRMuMNw9EZnUwW-207" value="(1,1)" style="text;html=1;align=center;verticalAlign=middle;resizable=0;points=[];autosize=1;strokeColor=none;fillColor=none;fontFamily=Helvetica;fontSize=11;fontColor=default;labelBackgroundColor=none;" vertex="1" parent="1">
          <mxGeometry x="775" y="288" width="50" height="30" as="geometry" />
        </mxCell>
        <mxCell id="BQsE2AKRMuMNw9EZnUwW-208" value="(1,1)" style="text;html=1;align=center;verticalAlign=middle;resizable=0;points=[];autosize=1;strokeColor=none;fillColor=none;fontFamily=Helvetica;fontSize=11;fontColor=default;labelBackgroundColor=none;" vertex="1" parent="1">
          <mxGeometry x="880" y="285" width="50" height="30" as="geometry" />
        </mxCell>
        <mxCell id="BQsE2AKRMuMNw9EZnUwW-210" value="(0,7)" style="text;html=1;align=center;verticalAlign=middle;resizable=0;points=[];autosize=1;strokeColor=none;fillColor=none;fontFamily=Helvetica;fontSize=11;fontColor=default;labelBackgroundColor=none;" vertex="1" parent="1">
          <mxGeometry x="995" y="288" width="50" height="30" as="geometry" />
        </mxCell>
        <mxCell id="BQsE2AKRMuMNw9EZnUwW-211" value="(0,*)" style="text;html=1;align=center;verticalAlign=middle;resizable=0;points=[];autosize=1;strokeColor=none;fillColor=none;fontFamily=Helvetica;fontSize=11;fontColor=default;labelBackgroundColor=none;" vertex="1" parent="1">
          <mxGeometry x="1250" y="430" width="40" height="30" as="geometry" />
        </mxCell>
        <mxCell id="BQsE2AKRMuMNw9EZnUwW-213" value="" style="edgeStyle=orthogonalEdgeStyle;shape=connector;rounded=0;orthogonalLoop=1;jettySize=auto;html=1;exitX=0;exitY=1;exitDx=0;exitDy=0;align=center;verticalAlign=middle;fontFamily=Helvetica;fontSize=11;fontColor=default;labelBackgroundColor=none;startFill=0;endArrow=none;" edge="1" parent="1" source="BQsE2AKRMuMNw9EZnUwW-46" target="BQsE2AKRMuMNw9EZnUwW-212">
          <mxGeometry relative="1" as="geometry">
            <mxPoint x="790" y="768" as="sourcePoint" />
            <mxPoint x="780" y="1020" as="targetPoint" />
          </mxGeometry>
        </mxCell>
        <mxCell id="BQsE2AKRMuMNw9EZnUwW-212" value="from" style="shape=rhombus;perimeter=rhombusPerimeter;whiteSpace=wrap;html=1;align=center;labelBackgroundColor=none;" vertex="1" parent="1">
          <mxGeometry x="700" y="880" width="120" height="60" as="geometry" />
        </mxCell>
        <mxCell id="BQsE2AKRMuMNw9EZnUwW-215" value="" style="edgeStyle=orthogonalEdgeStyle;shape=connector;rounded=0;orthogonalLoop=1;jettySize=auto;html=1;entryX=0.5;entryY=1;entryDx=0;entryDy=0;align=center;verticalAlign=middle;fontFamily=Helvetica;fontSize=11;fontColor=default;labelBackgroundColor=none;startFill=0;endArrow=none;exitX=1;exitY=0.5;exitDx=0;exitDy=0;" edge="1" parent="1" source="BQsE2AKRMuMNw9EZnUwW-195" target="BQsE2AKRMuMNw9EZnUwW-214">
          <mxGeometry relative="1" as="geometry">
            <mxPoint x="900" y="1020" as="sourcePoint" />
            <mxPoint x="890" y="768" as="targetPoint" />
          </mxGeometry>
        </mxCell>
        <mxCell id="BQsE2AKRMuMNw9EZnUwW-214" value="to" style="shape=rhombus;perimeter=rhombusPerimeter;whiteSpace=wrap;html=1;align=center;labelBackgroundColor=none;" vertex="1" parent="1">
          <mxGeometry x="860" y="880" width="120" height="60" as="geometry" />
        </mxCell>
        <mxCell id="BQsE2AKRMuMNw9EZnUwW-218" style="edgeStyle=orthogonalEdgeStyle;shape=connector;rounded=0;orthogonalLoop=1;jettySize=auto;html=1;entryX=0.46;entryY=1.061;entryDx=0;entryDy=0;strokeColor=default;align=center;verticalAlign=middle;fontFamily=Helvetica;fontSize=11;fontColor=default;labelBackgroundColor=none;startFill=0;endArrow=none;exitX=0.5;exitY=0;exitDx=0;exitDy=0;entryPerimeter=0;" edge="1" parent="1" source="BQsE2AKRMuMNw9EZnUwW-216" target="BQsE2AKRMuMNw9EZnUwW-195">
          <mxGeometry relative="1" as="geometry">
            <mxPoint x="722" y="1100" as="sourcePoint" />
            <mxPoint x="787" y="1020" as="targetPoint" />
          </mxGeometry>
        </mxCell>
        <mxCell id="BQsE2AKRMuMNw9EZnUwW-216" value="RoutID" style="ellipse;whiteSpace=wrap;html=1;align=center;fontStyle=4;fontFamily=Helvetica;fontSize=11;fontColor=default;labelBackgroundColor=none;" vertex="1" parent="1">
          <mxGeometry x="675" y="1110" width="100" height="40" as="geometry" />
        </mxCell>
        <mxCell id="BQsE2AKRMuMNw9EZnUwW-219" value="N" style="text;html=1;align=center;verticalAlign=middle;resizable=0;points=[];autosize=1;strokeColor=none;fillColor=none;fontFamily=Helvetica;fontSize=11;fontColor=default;labelBackgroundColor=none;" vertex="1" parent="1">
          <mxGeometry x="725" y="958" width="30" height="30" as="geometry" />
        </mxCell>
        <mxCell id="BQsE2AKRMuMNw9EZnUwW-220" value="N" style="text;html=1;align=center;verticalAlign=middle;resizable=0;points=[];autosize=1;strokeColor=none;fillColor=none;fontFamily=Helvetica;fontSize=11;fontColor=default;labelBackgroundColor=none;" vertex="1" parent="1">
          <mxGeometry x="885" y="958" width="30" height="30" as="geometry" />
        </mxCell>
        <mxCell id="BQsE2AKRMuMNw9EZnUwW-221" value="1" style="text;html=1;align=center;verticalAlign=middle;resizable=0;points=[];autosize=1;strokeColor=none;fillColor=none;fontFamily=Helvetica;fontSize=11;fontColor=default;labelBackgroundColor=none;" vertex="1" parent="1">
          <mxGeometry x="860" y="768" width="30" height="30" as="geometry" />
        </mxCell>
        <mxCell id="BQsE2AKRMuMNw9EZnUwW-222" value="(0,*)" style="text;html=1;align=center;verticalAlign=middle;resizable=0;points=[];autosize=1;strokeColor=none;fillColor=none;fontFamily=Helvetica;fontSize=11;fontColor=default;labelBackgroundColor=none;" vertex="1" parent="1">
          <mxGeometry x="780" y="768" width="40" height="30" as="geometry" />
        </mxCell>
        <mxCell id="BQsE2AKRMuMNw9EZnUwW-223" value="(1,1)" style="text;html=1;align=center;verticalAlign=middle;resizable=0;points=[];autosize=1;strokeColor=none;fillColor=none;fontFamily=Helvetica;fontSize=11;fontColor=default;labelBackgroundColor=none;" vertex="1" parent="1">
          <mxGeometry x="755" y="958" width="50" height="30" as="geometry" />
        </mxCell>
        <mxCell id="BQsE2AKRMuMNw9EZnUwW-224" value="(0,*)" style="text;html=1;align=center;verticalAlign=middle;resizable=0;points=[];autosize=1;strokeColor=none;fillColor=none;fontFamily=Helvetica;fontSize=11;fontColor=default;labelBackgroundColor=none;" vertex="1" parent="1">
          <mxGeometry x="880" y="768" width="40" height="30" as="geometry" />
        </mxCell>
        <mxCell id="BQsE2AKRMuMNw9EZnUwW-225" value="(1,1)" style="text;html=1;align=center;verticalAlign=middle;resizable=0;points=[];autosize=1;strokeColor=none;fillColor=none;fontFamily=Helvetica;fontSize=11;fontColor=default;labelBackgroundColor=none;" vertex="1" parent="1">
          <mxGeometry x="915" y="958" width="50" height="30" as="geometry" />
        </mxCell>
        <mxCell id="BQsE2AKRMuMNw9EZnUwW-226" value="(0,*)" style="text;html=1;align=center;verticalAlign=middle;resizable=0;points=[];autosize=1;strokeColor=none;fillColor=none;fontFamily=Helvetica;fontSize=11;fontColor=default;labelBackgroundColor=none;" vertex="1" parent="1">
          <mxGeometry x="40" y="-102" width="40" height="30" as="geometry" />
        </mxCell>
        <mxCell id="BQsE2AKRMuMNw9EZnUwW-227" value="(0,1)" style="text;html=1;align=center;verticalAlign=middle;resizable=0;points=[];autosize=1;strokeColor=none;fillColor=none;fontFamily=Helvetica;fontSize=11;fontColor=default;labelBackgroundColor=none;" vertex="1" parent="1">
          <mxGeometry x="285" y="-102" width="50" height="30" as="geometry" />
        </mxCell>
        <mxCell id="BQsE2AKRMuMNw9EZnUwW-228" value="(0,*)" style="text;html=1;align=center;verticalAlign=middle;resizable=0;points=[];autosize=1;strokeColor=none;fillColor=none;fontFamily=Helvetica;fontSize=11;fontColor=default;labelBackgroundColor=none;" vertex="1" parent="1">
          <mxGeometry x="440" y="-102" width="40" height="30" as="geometry" />
        </mxCell>
        <mxCell id="BQsE2AKRMuMNw9EZnUwW-229" value="(1,1)" style="text;html=1;align=center;verticalAlign=middle;resizable=0;points=[];autosize=1;strokeColor=none;fillColor=none;fontFamily=Helvetica;fontSize=11;fontColor=default;labelBackgroundColor=none;" vertex="1" parent="1">
          <mxGeometry x="715" y="-102" width="50" height="30" as="geometry" />
        </mxCell>
        <mxCell id="BQsE2AKRMuMNw9EZnUwW-230" value="(1,1)" style="text;html=1;align=center;verticalAlign=middle;resizable=0;points=[];autosize=1;strokeColor=none;fillColor=none;fontFamily=Helvetica;fontSize=11;fontColor=default;labelBackgroundColor=none;" vertex="1" parent="1">
          <mxGeometry x="385" y="-72" width="50" height="30" as="geometry" />
        </mxCell>
        <mxCell id="BQsE2AKRMuMNw9EZnUwW-231" value="(0,*)" style="text;html=1;align=center;verticalAlign=middle;resizable=0;points=[];autosize=1;strokeColor=none;fillColor=none;fontFamily=Helvetica;fontSize=11;fontColor=default;labelBackgroundColor=none;" vertex="1" parent="1">
          <mxGeometry x="390" y="208" width="40" height="30" as="geometry" />
        </mxCell>
        <mxCell id="BQsE2AKRMuMNw9EZnUwW-232" value="(0,*)" style="text;html=1;align=center;verticalAlign=middle;resizable=0;points=[];autosize=1;strokeColor=none;fillColor=none;fontFamily=Helvetica;fontSize=11;fontColor=default;labelBackgroundColor=none;" vertex="1" parent="1">
          <mxGeometry x="450" y="268" width="40" height="30" as="geometry" />
        </mxCell>
        <mxCell id="BQsE2AKRMuMNw9EZnUwW-233" value="(1,1)" style="text;html=1;align=center;verticalAlign=middle;resizable=0;points=[];autosize=1;strokeColor=none;fillColor=none;fontFamily=Helvetica;fontSize=11;fontColor=default;labelBackgroundColor=none;" vertex="1" parent="1">
          <mxGeometry x="665" y="278" width="50" height="30" as="geometry" />
        </mxCell>
        <mxCell id="BQsE2AKRMuMNw9EZnUwW-234" value="(1,1)" style="text;html=1;align=center;verticalAlign=middle;resizable=0;points=[];autosize=1;strokeColor=none;fillColor=none;fontFamily=Helvetica;fontSize=11;fontColor=default;labelBackgroundColor=none;" vertex="1" parent="1">
          <mxGeometry x="845" y="-82" width="50" height="30" as="geometry" />
        </mxCell>
        <mxCell id="BQsE2AKRMuMNw9EZnUwW-235" value="(0,*)" style="text;html=1;align=center;verticalAlign=middle;resizable=0;points=[];autosize=1;strokeColor=none;fillColor=none;fontFamily=Helvetica;fontSize=11;fontColor=default;labelBackgroundColor=none;" vertex="1" parent="1">
          <mxGeometry x="840" y="218" width="40" height="30" as="geometry" />
        </mxCell>
        <mxCell id="BQsE2AKRMuMNw9EZnUwW-236" value="(0,*)" style="text;html=1;align=center;verticalAlign=middle;resizable=0;points=[];autosize=1;strokeColor=none;fillColor=none;fontFamily=Helvetica;fontSize=11;fontColor=default;labelBackgroundColor=none;" vertex="1" parent="1">
          <mxGeometry x="900" y="-102" width="40" height="30" as="geometry" />
        </mxCell>
        <mxCell id="BQsE2AKRMuMNw9EZnUwW-237" value="(1,1)" style="text;html=1;align=center;verticalAlign=middle;resizable=0;points=[];autosize=1;strokeColor=none;fillColor=none;fontFamily=Helvetica;fontSize=11;fontColor=default;labelBackgroundColor=none;" vertex="1" parent="1">
          <mxGeometry x="1565" y="-102" width="50" height="30" as="geometry" />
        </mxCell>
        <mxCell id="BQsE2AKRMuMNw9EZnUwW-238" value="(1,1)" style="text;html=1;align=center;verticalAlign=middle;resizable=0;points=[];autosize=1;strokeColor=none;fillColor=none;fontFamily=Helvetica;fontSize=11;fontColor=default;labelBackgroundColor=none;" vertex="1" parent="1">
          <mxGeometry x="1705" y="-72" width="50" height="30" as="geometry" />
        </mxCell>
        <mxCell id="BQsE2AKRMuMNw9EZnUwW-239" value="(0,1)" style="text;html=1;align=center;verticalAlign=middle;resizable=0;points=[];autosize=1;strokeColor=none;fillColor=none;fontFamily=Helvetica;fontSize=11;fontColor=default;labelBackgroundColor=none;" vertex="1" parent="1">
          <mxGeometry x="1695" y="218" width="50" height="30" as="geometry" />
        </mxCell>
        <mxCell id="BQsE2AKRMuMNw9EZnUwW-240" value="(1,1)" style="text;html=1;align=center;verticalAlign=middle;resizable=0;points=[];autosize=1;strokeColor=none;fillColor=none;fontFamily=Helvetica;fontSize=11;fontColor=default;labelBackgroundColor=none;" vertex="1" parent="1">
          <mxGeometry x="1685" y="288" width="50" height="30" as="geometry" />
        </mxCell>
        <mxCell id="BQsE2AKRMuMNw9EZnUwW-241" value="(0,*)" style="text;html=1;align=center;verticalAlign=middle;resizable=0;points=[];autosize=1;strokeColor=none;fillColor=none;fontFamily=Helvetica;fontSize=11;fontColor=default;labelBackgroundColor=none;" vertex="1" parent="1">
          <mxGeometry x="1690" y="498" width="40" height="30" as="geometry" />
        </mxCell>
        <mxCell id="BQsE2AKRMuMNw9EZnUwW-245" style="edgeStyle=orthogonalEdgeStyle;shape=connector;rounded=0;orthogonalLoop=1;jettySize=auto;html=1;entryX=1;entryY=0.5;entryDx=0;entryDy=0;strokeColor=default;align=center;verticalAlign=middle;fontFamily=Helvetica;fontSize=11;fontColor=default;labelBackgroundColor=none;startFill=0;endArrow=none;" edge="1" parent="1" source="BQsE2AKRMuMNw9EZnUwW-242" target="BQsE2AKRMuMNw9EZnUwW-148">
          <mxGeometry relative="1" as="geometry" />
        </mxCell>
        <mxCell id="BQsE2AKRMuMNw9EZnUwW-242" value="dayName" style="ellipse;whiteSpace=wrap;html=1;align=center;labelBackgroundColor=none;" vertex="1" parent="1">
          <mxGeometry x="1410" y="510" width="100" height="40" as="geometry" />
        </mxCell>
        <mxCell id="BQsE2AKRMuMNw9EZnUwW-244" style="edgeStyle=orthogonalEdgeStyle;shape=connector;rounded=0;orthogonalLoop=1;jettySize=auto;html=1;entryX=1;entryY=0.5;entryDx=0;entryDy=0;strokeColor=default;align=center;verticalAlign=middle;fontFamily=Helvetica;fontSize=11;fontColor=default;labelBackgroundColor=none;startFill=0;endArrow=none;" edge="1" parent="1" source="BQsE2AKRMuMNw9EZnUwW-243" target="BQsE2AKRMuMNw9EZnUwW-148">
          <mxGeometry relative="1" as="geometry" />
        </mxCell>
        <mxCell id="BQsE2AKRMuMNw9EZnUwW-243" value="dayID" style="ellipse;whiteSpace=wrap;html=1;align=center;fontStyle=4;fontFamily=Helvetica;fontSize=11;fontColor=default;labelBackgroundColor=none;" vertex="1" parent="1">
          <mxGeometry x="1410" y="435" width="100" height="40" as="geometry" />
        </mxCell>
        <mxCell id="BQsE2AKRMuMNw9EZnUwW-247" value="N" style="text;html=1;align=center;verticalAlign=middle;resizable=0;points=[];autosize=1;strokeColor=none;fillColor=none;fontFamily=Helvetica;fontSize=11;fontColor=default;labelBackgroundColor=none;" vertex="1" parent="1">
          <mxGeometry x="1565" y="228" width="30" height="30" as="geometry" />
        </mxCell>
        <mxCell id="BQsE2AKRMuMNw9EZnUwW-248" value="1" style="text;html=1;align=center;verticalAlign=middle;resizable=0;points=[];autosize=1;strokeColor=none;fillColor=none;fontFamily=Helvetica;fontSize=11;fontColor=default;labelBackgroundColor=none;" vertex="1" parent="1">
          <mxGeometry x="1100" y="228" width="30" height="30" as="geometry" />
        </mxCell>
        <mxCell id="BQsE2AKRMuMNw9EZnUwW-249" value="(0,*)" style="text;html=1;align=center;verticalAlign=middle;resizable=0;points=[];autosize=1;strokeColor=none;fillColor=none;fontFamily=Helvetica;fontSize=11;fontColor=default;labelBackgroundColor=none;" vertex="1" parent="1">
          <mxGeometry x="1100" y="268" width="40" height="30" as="geometry" />
        </mxCell>
        <mxCell id="BQsE2AKRMuMNw9EZnUwW-250" value="(1,1)" style="text;html=1;align=center;verticalAlign=middle;resizable=0;points=[];autosize=1;strokeColor=none;fillColor=none;fontFamily=Helvetica;fontSize=11;fontColor=default;labelBackgroundColor=none;" vertex="1" parent="1">
          <mxGeometry x="1555" y="268" width="50" height="30" as="geometry" />
        </mxCell>
        <mxCell id="BQsE2AKRMuMNw9EZnUwW-252" style="edgeStyle=orthogonalEdgeStyle;shape=connector;rounded=0;orthogonalLoop=1;jettySize=auto;html=1;exitX=0.5;exitY=0;exitDx=0;exitDy=0;entryX=0.5;entryY=1;entryDx=0;entryDy=0;strokeColor=default;align=center;verticalAlign=middle;fontFamily=Helvetica;fontSize=11;fontColor=default;labelBackgroundColor=none;startFill=0;endArrow=none;" edge="1" parent="1" source="BQsE2AKRMuMNw9EZnUwW-251" target="BQsE2AKRMuMNw9EZnUwW-13">
          <mxGeometry relative="1" as="geometry" />
        </mxCell>
        <mxCell id="BQsE2AKRMuMNw9EZnUwW-251" value="rows" style="ellipse;whiteSpace=wrap;html=1;align=center;labelBackgroundColor=none;" vertex="1" parent="1">
          <mxGeometry x="335" y="340" width="100" height="40" as="geometry" />
        </mxCell>
        <mxCell id="BQsE2AKRMuMNw9EZnUwW-254" style="edgeStyle=orthogonalEdgeStyle;shape=connector;rounded=0;orthogonalLoop=1;jettySize=auto;html=1;entryX=1;entryY=0.5;entryDx=0;entryDy=0;strokeColor=default;align=center;verticalAlign=middle;fontFamily=Helvetica;fontSize=11;fontColor=default;labelBackgroundColor=none;startFill=0;endArrow=none;" edge="1" parent="1" source="BQsE2AKRMuMNw9EZnUwW-253" target="BQsE2AKRMuMNw9EZnUwW-122">
          <mxGeometry relative="1" as="geometry" />
        </mxCell>
        <mxCell id="BQsE2AKRMuMNw9EZnUwW-253" value="seat" style="ellipse;whiteSpace=wrap;html=1;align=center;labelBackgroundColor=none;" vertex="1" parent="1">
          <mxGeometry x="1840" y="-60" width="100" height="40" as="geometry" />
        </mxCell>
      </root>
    </mxGraphModel>
  </diagram>
</mxfile>
